%
M48
M72
T01C0.0320
T02C0.0360
T03C0.0400
T04C0.0433
T05C0.0472
T06C0.0512
T07C0.0866
%
T01
X9148Y2180
X10148Y2180
X12648Y2180
X16648Y2180
X17948Y1180
X19648Y2180
X18898Y2680
X19648Y3180
X16648Y4180
X16648Y5180
X17948Y5180
X19648Y5180
X16648Y6180
X16648Y7180
X17648Y7580
X18648Y7580
X17148Y8680
X19648Y9180
X13648Y7180
X11648Y6630
X13648Y6180
X13648Y5180
X13648Y4180
X11648Y4730
X9648Y5180
X9648Y4180
X9648Y6180
X9648Y7180
X13148Y8680
T02
X8093Y7058
X8093Y6124
X8093Y5236
X8093Y4302
T03
X8868Y8790
X11428Y8790
X11428Y10570
X8868Y10570
T04
X7109Y6566
X7109Y4794
T05
X21679Y3180
X23648Y1211
X24632Y1211
X24632Y5149
X23648Y5149
X23648Y6711
X24632Y6711
X21679Y8680
X23648Y10649
X24632Y10649
T06
X21679Y10649
X21679Y9664
X23648Y8680
X21679Y7696
X21679Y6711
X21679Y5149
X21679Y4164
X23648Y3180
X21679Y2196
X21679Y1211
T07
X7148Y3397
X7148Y7963
M30
