G75*
G70*
%OFA0B0*%
%FSLAX24Y24*%
%IPPOS*%
%LPD*%
%AMOC8*
5,1,8,0,0,1.08239X$1,22.5*
%
%ADD10C,0.0000*%
%ADD11C,0.0110*%
%ADD12C,0.0060*%
%ADD13C,0.0100*%
%ADD14C,0.0050*%
%ADD15C,0.0080*%
%ADD16C,0.0040*%
%ADD17C,0.0240*%
%ADD18R,0.0340X0.0240*%
%ADD19R,0.0240X0.0340*%
%ADD20C,0.0160*%
D10*
X005948Y001387D02*
X005948Y010472D01*
X005943Y010523D01*
X005941Y010573D01*
X005943Y010624D01*
X005948Y010674D01*
X005958Y010724D01*
X005970Y010774D01*
X005986Y010822D01*
X006006Y010868D01*
X006029Y010914D01*
X006055Y010957D01*
X006084Y010999D01*
X006115Y011039D01*
X006150Y011076D01*
X006187Y011110D01*
X006227Y011142D01*
X006269Y011171D01*
X006312Y011197D01*
X006358Y011219D01*
X006405Y011239D01*
X006453Y011255D01*
X006502Y011267D01*
X006552Y011276D01*
X024909Y011276D01*
X024953Y011274D01*
X024997Y011268D01*
X025041Y011259D01*
X025083Y011245D01*
X025124Y011228D01*
X025164Y011208D01*
X025201Y011184D01*
X025236Y011157D01*
X025269Y011127D01*
X025299Y011094D01*
X025326Y011059D01*
X025350Y011021D01*
X025370Y010982D01*
X025387Y010941D01*
X025401Y010899D01*
X025410Y010855D01*
X025416Y010811D01*
X025418Y010767D01*
X025418Y001050D01*
X025416Y001009D01*
X025411Y000968D01*
X025402Y000928D01*
X025390Y000889D01*
X025374Y000851D01*
X025355Y000815D01*
X025333Y000780D01*
X025308Y000748D01*
X025280Y000718D01*
X025250Y000690D01*
X025218Y000665D01*
X025183Y000643D01*
X025147Y000624D01*
X025109Y000608D01*
X025070Y000596D01*
X025030Y000587D01*
X024989Y000582D01*
X024948Y000580D01*
X006655Y000580D01*
X006601Y000585D01*
X006548Y000594D01*
X006495Y000608D01*
X006444Y000624D01*
X006393Y000645D01*
X006345Y000669D01*
X006298Y000696D01*
X006253Y000727D01*
X006211Y000761D01*
X006171Y000797D01*
X006134Y000837D01*
X006100Y000879D01*
X006069Y000923D01*
X006041Y000970D01*
X006016Y001018D01*
X005995Y001068D01*
X005978Y001119D01*
X005964Y001172D01*
X005954Y001225D01*
X005948Y001279D01*
X005946Y001333D01*
X005948Y001387D01*
X006892Y004794D02*
X006894Y004823D01*
X006900Y004851D01*
X006909Y004879D01*
X006922Y004905D01*
X006939Y004928D01*
X006958Y004950D01*
X006980Y004969D01*
X007005Y004984D01*
X007031Y004997D01*
X007059Y005005D01*
X007087Y005010D01*
X007116Y005011D01*
X007145Y005008D01*
X007173Y005001D01*
X007200Y004991D01*
X007226Y004977D01*
X007249Y004960D01*
X007270Y004940D01*
X007288Y004917D01*
X007303Y004892D01*
X007314Y004865D01*
X007322Y004837D01*
X007326Y004808D01*
X007326Y004780D01*
X007322Y004751D01*
X007314Y004723D01*
X007303Y004696D01*
X007288Y004671D01*
X007270Y004648D01*
X007249Y004628D01*
X007226Y004611D01*
X007200Y004597D01*
X007173Y004587D01*
X007145Y004580D01*
X007116Y004577D01*
X007087Y004578D01*
X007059Y004583D01*
X007031Y004591D01*
X007005Y004604D01*
X006980Y004619D01*
X006958Y004638D01*
X006939Y004660D01*
X006922Y004683D01*
X006909Y004709D01*
X006900Y004737D01*
X006894Y004765D01*
X006892Y004794D01*
X006892Y006566D02*
X006894Y006595D01*
X006900Y006623D01*
X006909Y006651D01*
X006922Y006677D01*
X006939Y006700D01*
X006958Y006722D01*
X006980Y006741D01*
X007005Y006756D01*
X007031Y006769D01*
X007059Y006777D01*
X007087Y006782D01*
X007116Y006783D01*
X007145Y006780D01*
X007173Y006773D01*
X007200Y006763D01*
X007226Y006749D01*
X007249Y006732D01*
X007270Y006712D01*
X007288Y006689D01*
X007303Y006664D01*
X007314Y006637D01*
X007322Y006609D01*
X007326Y006580D01*
X007326Y006552D01*
X007322Y006523D01*
X007314Y006495D01*
X007303Y006468D01*
X007288Y006443D01*
X007270Y006420D01*
X007249Y006400D01*
X007226Y006383D01*
X007200Y006369D01*
X007173Y006359D01*
X007145Y006352D01*
X007116Y006349D01*
X007087Y006350D01*
X007059Y006355D01*
X007031Y006363D01*
X007005Y006376D01*
X006980Y006391D01*
X006958Y006410D01*
X006939Y006432D01*
X006922Y006455D01*
X006909Y006481D01*
X006900Y006509D01*
X006894Y006537D01*
X006892Y006566D01*
X021443Y008680D02*
X021445Y008710D01*
X021451Y008740D01*
X021460Y008769D01*
X021473Y008796D01*
X021490Y008821D01*
X021509Y008844D01*
X021532Y008865D01*
X021557Y008882D01*
X021583Y008896D01*
X021612Y008906D01*
X021641Y008913D01*
X021671Y008916D01*
X021702Y008915D01*
X021732Y008910D01*
X021761Y008901D01*
X021788Y008889D01*
X021814Y008874D01*
X021838Y008855D01*
X021859Y008833D01*
X021877Y008809D01*
X021892Y008782D01*
X021903Y008754D01*
X021911Y008725D01*
X021915Y008695D01*
X021915Y008665D01*
X021911Y008635D01*
X021903Y008606D01*
X021892Y008578D01*
X021877Y008551D01*
X021859Y008527D01*
X021838Y008505D01*
X021814Y008486D01*
X021788Y008471D01*
X021761Y008459D01*
X021732Y008450D01*
X021702Y008445D01*
X021671Y008444D01*
X021641Y008447D01*
X021612Y008454D01*
X021583Y008464D01*
X021557Y008478D01*
X021532Y008495D01*
X021509Y008516D01*
X021490Y008539D01*
X021473Y008564D01*
X021460Y008591D01*
X021451Y008620D01*
X021445Y008650D01*
X021443Y008680D01*
X023412Y006711D02*
X023414Y006741D01*
X023420Y006771D01*
X023429Y006800D01*
X023442Y006827D01*
X023459Y006852D01*
X023478Y006875D01*
X023501Y006896D01*
X023526Y006913D01*
X023552Y006927D01*
X023581Y006937D01*
X023610Y006944D01*
X023640Y006947D01*
X023671Y006946D01*
X023701Y006941D01*
X023730Y006932D01*
X023757Y006920D01*
X023783Y006905D01*
X023807Y006886D01*
X023828Y006864D01*
X023846Y006840D01*
X023861Y006813D01*
X023872Y006785D01*
X023880Y006756D01*
X023884Y006726D01*
X023884Y006696D01*
X023880Y006666D01*
X023872Y006637D01*
X023861Y006609D01*
X023846Y006582D01*
X023828Y006558D01*
X023807Y006536D01*
X023783Y006517D01*
X023757Y006502D01*
X023730Y006490D01*
X023701Y006481D01*
X023671Y006476D01*
X023640Y006475D01*
X023610Y006478D01*
X023581Y006485D01*
X023552Y006495D01*
X023526Y006509D01*
X023501Y006526D01*
X023478Y006547D01*
X023459Y006570D01*
X023442Y006595D01*
X023429Y006622D01*
X023420Y006651D01*
X023414Y006681D01*
X023412Y006711D01*
X024396Y006711D02*
X024398Y006741D01*
X024404Y006771D01*
X024413Y006800D01*
X024426Y006827D01*
X024443Y006852D01*
X024462Y006875D01*
X024485Y006896D01*
X024510Y006913D01*
X024536Y006927D01*
X024565Y006937D01*
X024594Y006944D01*
X024624Y006947D01*
X024655Y006946D01*
X024685Y006941D01*
X024714Y006932D01*
X024741Y006920D01*
X024767Y006905D01*
X024791Y006886D01*
X024812Y006864D01*
X024830Y006840D01*
X024845Y006813D01*
X024856Y006785D01*
X024864Y006756D01*
X024868Y006726D01*
X024868Y006696D01*
X024864Y006666D01*
X024856Y006637D01*
X024845Y006609D01*
X024830Y006582D01*
X024812Y006558D01*
X024791Y006536D01*
X024767Y006517D01*
X024741Y006502D01*
X024714Y006490D01*
X024685Y006481D01*
X024655Y006476D01*
X024624Y006475D01*
X024594Y006478D01*
X024565Y006485D01*
X024536Y006495D01*
X024510Y006509D01*
X024485Y006526D01*
X024462Y006547D01*
X024443Y006570D01*
X024426Y006595D01*
X024413Y006622D01*
X024404Y006651D01*
X024398Y006681D01*
X024396Y006711D01*
X024396Y005149D02*
X024398Y005179D01*
X024404Y005209D01*
X024413Y005238D01*
X024426Y005265D01*
X024443Y005290D01*
X024462Y005313D01*
X024485Y005334D01*
X024510Y005351D01*
X024536Y005365D01*
X024565Y005375D01*
X024594Y005382D01*
X024624Y005385D01*
X024655Y005384D01*
X024685Y005379D01*
X024714Y005370D01*
X024741Y005358D01*
X024767Y005343D01*
X024791Y005324D01*
X024812Y005302D01*
X024830Y005278D01*
X024845Y005251D01*
X024856Y005223D01*
X024864Y005194D01*
X024868Y005164D01*
X024868Y005134D01*
X024864Y005104D01*
X024856Y005075D01*
X024845Y005047D01*
X024830Y005020D01*
X024812Y004996D01*
X024791Y004974D01*
X024767Y004955D01*
X024741Y004940D01*
X024714Y004928D01*
X024685Y004919D01*
X024655Y004914D01*
X024624Y004913D01*
X024594Y004916D01*
X024565Y004923D01*
X024536Y004933D01*
X024510Y004947D01*
X024485Y004964D01*
X024462Y004985D01*
X024443Y005008D01*
X024426Y005033D01*
X024413Y005060D01*
X024404Y005089D01*
X024398Y005119D01*
X024396Y005149D01*
X023412Y005149D02*
X023414Y005179D01*
X023420Y005209D01*
X023429Y005238D01*
X023442Y005265D01*
X023459Y005290D01*
X023478Y005313D01*
X023501Y005334D01*
X023526Y005351D01*
X023552Y005365D01*
X023581Y005375D01*
X023610Y005382D01*
X023640Y005385D01*
X023671Y005384D01*
X023701Y005379D01*
X023730Y005370D01*
X023757Y005358D01*
X023783Y005343D01*
X023807Y005324D01*
X023828Y005302D01*
X023846Y005278D01*
X023861Y005251D01*
X023872Y005223D01*
X023880Y005194D01*
X023884Y005164D01*
X023884Y005134D01*
X023880Y005104D01*
X023872Y005075D01*
X023861Y005047D01*
X023846Y005020D01*
X023828Y004996D01*
X023807Y004974D01*
X023783Y004955D01*
X023757Y004940D01*
X023730Y004928D01*
X023701Y004919D01*
X023671Y004914D01*
X023640Y004913D01*
X023610Y004916D01*
X023581Y004923D01*
X023552Y004933D01*
X023526Y004947D01*
X023501Y004964D01*
X023478Y004985D01*
X023459Y005008D01*
X023442Y005033D01*
X023429Y005060D01*
X023420Y005089D01*
X023414Y005119D01*
X023412Y005149D01*
X021443Y003180D02*
X021445Y003210D01*
X021451Y003240D01*
X021460Y003269D01*
X021473Y003296D01*
X021490Y003321D01*
X021509Y003344D01*
X021532Y003365D01*
X021557Y003382D01*
X021583Y003396D01*
X021612Y003406D01*
X021641Y003413D01*
X021671Y003416D01*
X021702Y003415D01*
X021732Y003410D01*
X021761Y003401D01*
X021788Y003389D01*
X021814Y003374D01*
X021838Y003355D01*
X021859Y003333D01*
X021877Y003309D01*
X021892Y003282D01*
X021903Y003254D01*
X021911Y003225D01*
X021915Y003195D01*
X021915Y003165D01*
X021911Y003135D01*
X021903Y003106D01*
X021892Y003078D01*
X021877Y003051D01*
X021859Y003027D01*
X021838Y003005D01*
X021814Y002986D01*
X021788Y002971D01*
X021761Y002959D01*
X021732Y002950D01*
X021702Y002945D01*
X021671Y002944D01*
X021641Y002947D01*
X021612Y002954D01*
X021583Y002964D01*
X021557Y002978D01*
X021532Y002995D01*
X021509Y003016D01*
X021490Y003039D01*
X021473Y003064D01*
X021460Y003091D01*
X021451Y003120D01*
X021445Y003150D01*
X021443Y003180D01*
X023412Y001211D02*
X023414Y001241D01*
X023420Y001271D01*
X023429Y001300D01*
X023442Y001327D01*
X023459Y001352D01*
X023478Y001375D01*
X023501Y001396D01*
X023526Y001413D01*
X023552Y001427D01*
X023581Y001437D01*
X023610Y001444D01*
X023640Y001447D01*
X023671Y001446D01*
X023701Y001441D01*
X023730Y001432D01*
X023757Y001420D01*
X023783Y001405D01*
X023807Y001386D01*
X023828Y001364D01*
X023846Y001340D01*
X023861Y001313D01*
X023872Y001285D01*
X023880Y001256D01*
X023884Y001226D01*
X023884Y001196D01*
X023880Y001166D01*
X023872Y001137D01*
X023861Y001109D01*
X023846Y001082D01*
X023828Y001058D01*
X023807Y001036D01*
X023783Y001017D01*
X023757Y001002D01*
X023730Y000990D01*
X023701Y000981D01*
X023671Y000976D01*
X023640Y000975D01*
X023610Y000978D01*
X023581Y000985D01*
X023552Y000995D01*
X023526Y001009D01*
X023501Y001026D01*
X023478Y001047D01*
X023459Y001070D01*
X023442Y001095D01*
X023429Y001122D01*
X023420Y001151D01*
X023414Y001181D01*
X023412Y001211D01*
X024396Y001211D02*
X024398Y001241D01*
X024404Y001271D01*
X024413Y001300D01*
X024426Y001327D01*
X024443Y001352D01*
X024462Y001375D01*
X024485Y001396D01*
X024510Y001413D01*
X024536Y001427D01*
X024565Y001437D01*
X024594Y001444D01*
X024624Y001447D01*
X024655Y001446D01*
X024685Y001441D01*
X024714Y001432D01*
X024741Y001420D01*
X024767Y001405D01*
X024791Y001386D01*
X024812Y001364D01*
X024830Y001340D01*
X024845Y001313D01*
X024856Y001285D01*
X024864Y001256D01*
X024868Y001226D01*
X024868Y001196D01*
X024864Y001166D01*
X024856Y001137D01*
X024845Y001109D01*
X024830Y001082D01*
X024812Y001058D01*
X024791Y001036D01*
X024767Y001017D01*
X024741Y001002D01*
X024714Y000990D01*
X024685Y000981D01*
X024655Y000976D01*
X024624Y000975D01*
X024594Y000978D01*
X024565Y000985D01*
X024536Y000995D01*
X024510Y001009D01*
X024485Y001026D01*
X024462Y001047D01*
X024443Y001070D01*
X024426Y001095D01*
X024413Y001122D01*
X024404Y001151D01*
X024398Y001181D01*
X024396Y001211D01*
X024396Y010649D02*
X024398Y010679D01*
X024404Y010709D01*
X024413Y010738D01*
X024426Y010765D01*
X024443Y010790D01*
X024462Y010813D01*
X024485Y010834D01*
X024510Y010851D01*
X024536Y010865D01*
X024565Y010875D01*
X024594Y010882D01*
X024624Y010885D01*
X024655Y010884D01*
X024685Y010879D01*
X024714Y010870D01*
X024741Y010858D01*
X024767Y010843D01*
X024791Y010824D01*
X024812Y010802D01*
X024830Y010778D01*
X024845Y010751D01*
X024856Y010723D01*
X024864Y010694D01*
X024868Y010664D01*
X024868Y010634D01*
X024864Y010604D01*
X024856Y010575D01*
X024845Y010547D01*
X024830Y010520D01*
X024812Y010496D01*
X024791Y010474D01*
X024767Y010455D01*
X024741Y010440D01*
X024714Y010428D01*
X024685Y010419D01*
X024655Y010414D01*
X024624Y010413D01*
X024594Y010416D01*
X024565Y010423D01*
X024536Y010433D01*
X024510Y010447D01*
X024485Y010464D01*
X024462Y010485D01*
X024443Y010508D01*
X024426Y010533D01*
X024413Y010560D01*
X024404Y010589D01*
X024398Y010619D01*
X024396Y010649D01*
X023412Y010649D02*
X023414Y010679D01*
X023420Y010709D01*
X023429Y010738D01*
X023442Y010765D01*
X023459Y010790D01*
X023478Y010813D01*
X023501Y010834D01*
X023526Y010851D01*
X023552Y010865D01*
X023581Y010875D01*
X023610Y010882D01*
X023640Y010885D01*
X023671Y010884D01*
X023701Y010879D01*
X023730Y010870D01*
X023757Y010858D01*
X023783Y010843D01*
X023807Y010824D01*
X023828Y010802D01*
X023846Y010778D01*
X023861Y010751D01*
X023872Y010723D01*
X023880Y010694D01*
X023884Y010664D01*
X023884Y010634D01*
X023880Y010604D01*
X023872Y010575D01*
X023861Y010547D01*
X023846Y010520D01*
X023828Y010496D01*
X023807Y010474D01*
X023783Y010455D01*
X023757Y010440D01*
X023730Y010428D01*
X023701Y010419D01*
X023671Y010414D01*
X023640Y010413D01*
X023610Y010416D01*
X023581Y010423D01*
X023552Y010433D01*
X023526Y010447D01*
X023501Y010464D01*
X023478Y010485D01*
X023459Y010508D01*
X023442Y010533D01*
X023429Y010560D01*
X023420Y010589D01*
X023414Y010619D01*
X023412Y010649D01*
D11*
X019342Y010430D02*
X019342Y010332D01*
X018948Y010332D01*
X018948Y010430D02*
X019047Y010529D01*
X019244Y010529D01*
X019342Y010430D01*
X018948Y010430D02*
X018948Y010233D01*
X019047Y010135D01*
X019244Y010135D01*
X018716Y010135D02*
X018617Y010233D01*
X018617Y010627D01*
X018519Y010529D02*
X018716Y010529D01*
X018268Y010430D02*
X018169Y010529D01*
X017973Y010529D01*
X017874Y010430D01*
X017874Y010233D01*
X017973Y010135D01*
X018169Y010135D01*
X018268Y010233D01*
X018268Y010430D01*
X017623Y010430D02*
X017623Y010135D01*
X017426Y010135D02*
X017426Y010430D01*
X017525Y010529D01*
X017623Y010430D01*
X017426Y010430D02*
X017328Y010529D01*
X017230Y010529D01*
X017230Y010135D01*
X016880Y010135D02*
X016683Y010135D01*
X016585Y010233D01*
X016585Y010430D01*
X016683Y010529D01*
X016880Y010529D01*
X016979Y010430D01*
X016979Y010332D01*
X016585Y010332D01*
X016334Y010430D02*
X016236Y010332D01*
X015940Y010332D01*
X016137Y010332D02*
X016334Y010135D01*
X015940Y010135D02*
X015940Y010726D01*
X016236Y010726D01*
X016334Y010627D01*
X016334Y010430D01*
X015690Y010529D02*
X015690Y010037D01*
X015591Y009938D01*
X015493Y009938D01*
X015394Y010135D02*
X015690Y010135D01*
X015394Y010135D02*
X015296Y010233D01*
X015296Y010529D01*
X015045Y010430D02*
X015045Y010135D01*
X014651Y010135D02*
X014651Y010529D01*
X014947Y010529D01*
X015045Y010430D01*
X014419Y010135D02*
X014222Y010135D01*
X014320Y010135D02*
X014320Y010529D01*
X014222Y010529D01*
X014320Y010726D02*
X014320Y010824D01*
X013989Y010529D02*
X013792Y010529D01*
X013890Y010627D02*
X013890Y010233D01*
X013989Y010135D01*
X013344Y010135D02*
X013344Y010726D01*
X013147Y010726D02*
X013541Y010726D01*
X012897Y010529D02*
X012897Y010135D01*
X012897Y010430D02*
X012503Y010430D01*
X012503Y010529D02*
X012700Y010726D01*
X012897Y010529D01*
X012503Y010529D02*
X012503Y010135D01*
D12*
X013998Y009130D02*
X014148Y009130D01*
X014198Y009080D01*
X016098Y009080D01*
X016148Y009130D01*
X016298Y009130D01*
X016315Y009128D01*
X016332Y009124D01*
X016348Y009117D01*
X016362Y009107D01*
X016375Y009094D01*
X016385Y009080D01*
X016392Y009064D01*
X016396Y009047D01*
X016398Y009030D01*
X016398Y008330D01*
X016396Y008313D01*
X016392Y008296D01*
X016385Y008280D01*
X016375Y008266D01*
X016362Y008253D01*
X016348Y008243D01*
X016332Y008236D01*
X016315Y008232D01*
X016298Y008230D01*
X016148Y008230D01*
X016098Y008280D01*
X014198Y008280D01*
X014148Y008230D01*
X013998Y008230D01*
X013981Y008232D01*
X013964Y008236D01*
X013948Y008243D01*
X013934Y008253D01*
X013921Y008266D01*
X013911Y008280D01*
X013904Y008296D01*
X013900Y008313D01*
X013898Y008330D01*
X013898Y009030D01*
X013900Y009047D01*
X013904Y009064D01*
X013911Y009080D01*
X013921Y009094D01*
X013934Y009107D01*
X013948Y009117D01*
X013964Y009124D01*
X013981Y009128D01*
X013998Y009130D01*
X017198Y007980D02*
X017198Y007180D01*
X017200Y007163D01*
X017204Y007146D01*
X017211Y007130D01*
X017221Y007116D01*
X017234Y007103D01*
X017248Y007093D01*
X017264Y007086D01*
X017281Y007082D01*
X017298Y007080D01*
X018998Y007080D01*
X019015Y007082D01*
X019032Y007086D01*
X019048Y007093D01*
X019062Y007103D01*
X019075Y007116D01*
X019085Y007130D01*
X019092Y007146D01*
X019096Y007163D01*
X019098Y007180D01*
X019098Y007980D01*
X019096Y007997D01*
X019092Y008014D01*
X019085Y008030D01*
X019075Y008044D01*
X019062Y008057D01*
X019048Y008067D01*
X019032Y008074D01*
X019015Y008078D01*
X018998Y008080D01*
X017298Y008080D01*
X017281Y008078D01*
X017264Y008074D01*
X017248Y008067D01*
X017234Y008057D01*
X017221Y008044D01*
X017211Y008030D01*
X017204Y008014D01*
X017200Y007997D01*
X017198Y007980D01*
X017848Y007580D02*
X017998Y007580D01*
X018048Y007580D01*
X018248Y007580D02*
X018298Y007580D01*
X018448Y007580D01*
X019198Y008180D02*
X019248Y008130D01*
X019248Y006230D01*
X019198Y006180D01*
X019198Y006030D01*
X019200Y006013D01*
X019204Y005996D01*
X019211Y005980D01*
X019221Y005966D01*
X019234Y005953D01*
X019248Y005943D01*
X019264Y005936D01*
X019281Y005932D01*
X019298Y005930D01*
X019998Y005930D01*
X020015Y005932D01*
X020032Y005936D01*
X020048Y005943D01*
X020062Y005953D01*
X020075Y005966D01*
X020085Y005980D01*
X020092Y005996D01*
X020096Y006013D01*
X020098Y006030D01*
X020098Y006180D01*
X020048Y006230D01*
X020048Y008130D01*
X020098Y008180D01*
X020098Y008330D01*
X020096Y008347D01*
X020092Y008364D01*
X020085Y008380D01*
X020075Y008394D01*
X020062Y008407D01*
X020048Y008417D01*
X020032Y008424D01*
X020015Y008428D01*
X019998Y008430D01*
X019298Y008430D01*
X019281Y008428D01*
X019264Y008424D01*
X019248Y008417D01*
X019234Y008407D01*
X019221Y008394D01*
X019211Y008380D01*
X019204Y008364D01*
X019200Y008347D01*
X019198Y008330D01*
X019198Y008180D01*
X012298Y006880D02*
X012298Y004480D01*
X012296Y004430D01*
X012290Y004381D01*
X012281Y004332D01*
X012268Y004284D01*
X012251Y004237D01*
X012231Y004192D01*
X012207Y004148D01*
X012180Y004106D01*
X012149Y004066D01*
X012116Y004029D01*
X012080Y003995D01*
X012042Y003963D01*
X012001Y003934D01*
X011959Y003909D01*
X011914Y003887D01*
X011868Y003868D01*
X011820Y003853D01*
X011772Y003842D01*
X011723Y003834D01*
X011673Y003830D01*
X011623Y003830D01*
X011573Y003834D01*
X011524Y003842D01*
X011476Y003853D01*
X011428Y003868D01*
X011382Y003887D01*
X011337Y003909D01*
X011295Y003934D01*
X011254Y003963D01*
X011216Y003995D01*
X011180Y004029D01*
X011147Y004066D01*
X011116Y004106D01*
X011089Y004148D01*
X011065Y004192D01*
X011045Y004237D01*
X011028Y004284D01*
X011015Y004332D01*
X011006Y004381D01*
X011000Y004430D01*
X010998Y004480D01*
X010998Y006880D01*
X011000Y006930D01*
X011006Y006979D01*
X011015Y007028D01*
X011028Y007076D01*
X011045Y007123D01*
X011065Y007168D01*
X011089Y007212D01*
X011116Y007254D01*
X011147Y007294D01*
X011180Y007331D01*
X011216Y007365D01*
X011254Y007397D01*
X011295Y007426D01*
X011337Y007451D01*
X011382Y007473D01*
X011428Y007492D01*
X011476Y007507D01*
X011524Y007518D01*
X011573Y007526D01*
X011623Y007530D01*
X011673Y007530D01*
X011723Y007526D01*
X011772Y007518D01*
X011820Y007507D01*
X011868Y007492D01*
X011914Y007473D01*
X011959Y007451D01*
X012001Y007426D01*
X012042Y007397D01*
X012080Y007365D01*
X012116Y007331D01*
X012149Y007294D01*
X012180Y007254D01*
X012207Y007212D01*
X012231Y007168D01*
X012251Y007123D01*
X012268Y007076D01*
X012281Y007028D01*
X012290Y006979D01*
X012296Y006930D01*
X012298Y006880D01*
X011648Y006180D02*
X011648Y005930D01*
X011948Y005930D01*
X011948Y005780D02*
X011948Y005580D01*
X011348Y005580D01*
X011348Y005780D01*
X011948Y005780D01*
X011648Y005930D02*
X011348Y005930D01*
X011348Y005430D02*
X011648Y005430D01*
X011648Y005180D01*
X011648Y005430D02*
X011948Y005430D01*
X010148Y005530D02*
X010148Y003830D01*
X010146Y003813D01*
X010142Y003796D01*
X010135Y003780D01*
X010125Y003766D01*
X010112Y003753D01*
X010098Y003743D01*
X010082Y003736D01*
X010065Y003732D01*
X010048Y003730D01*
X009248Y003730D01*
X009231Y003732D01*
X009214Y003736D01*
X009198Y003743D01*
X009184Y003753D01*
X009171Y003766D01*
X009161Y003780D01*
X009154Y003796D01*
X009150Y003813D01*
X009148Y003830D01*
X009148Y005530D01*
X009150Y005547D01*
X009154Y005564D01*
X009161Y005580D01*
X009171Y005594D01*
X009184Y005607D01*
X009198Y005617D01*
X009214Y005624D01*
X009231Y005628D01*
X009248Y005630D01*
X010048Y005630D01*
X010065Y005628D01*
X010082Y005624D01*
X010098Y005617D01*
X010112Y005607D01*
X010125Y005594D01*
X010135Y005580D01*
X010142Y005564D01*
X010146Y005547D01*
X010148Y005530D01*
X010048Y005730D02*
X009248Y005730D01*
X009231Y005732D01*
X009214Y005736D01*
X009198Y005743D01*
X009184Y005753D01*
X009171Y005766D01*
X009161Y005780D01*
X009154Y005796D01*
X009150Y005813D01*
X009148Y005830D01*
X009148Y007530D01*
X009150Y007547D01*
X009154Y007564D01*
X009161Y007580D01*
X009171Y007594D01*
X009184Y007607D01*
X009198Y007617D01*
X009214Y007624D01*
X009231Y007628D01*
X009248Y007630D01*
X010048Y007630D01*
X010065Y007628D01*
X010082Y007624D01*
X010098Y007617D01*
X010112Y007607D01*
X010125Y007594D01*
X010135Y007580D01*
X010142Y007564D01*
X010146Y007547D01*
X010148Y007530D01*
X010148Y005830D01*
X010146Y005813D01*
X010142Y005796D01*
X010135Y005780D01*
X010125Y005766D01*
X010112Y005753D01*
X010098Y005743D01*
X010082Y005736D01*
X010065Y005732D01*
X010048Y005730D01*
X009648Y006380D02*
X009648Y006530D01*
X009648Y006580D01*
X009648Y006780D02*
X009648Y006830D01*
X009648Y006980D01*
X009648Y004980D02*
X009648Y004830D01*
X009648Y004780D01*
X009648Y004580D02*
X009648Y004530D01*
X009648Y004380D01*
X013398Y002530D02*
X013398Y001830D01*
X013400Y001813D01*
X013404Y001796D01*
X013411Y001780D01*
X013421Y001766D01*
X013434Y001753D01*
X013448Y001743D01*
X013464Y001736D01*
X013481Y001732D01*
X013498Y001730D01*
X013648Y001730D01*
X013698Y001780D01*
X015598Y001780D01*
X015648Y001730D01*
X015798Y001730D01*
X015815Y001732D01*
X015832Y001736D01*
X015848Y001743D01*
X015862Y001753D01*
X015875Y001766D01*
X015885Y001780D01*
X015892Y001796D01*
X015896Y001813D01*
X015898Y001830D01*
X015898Y002530D01*
X015896Y002547D01*
X015892Y002564D01*
X015885Y002580D01*
X015875Y002594D01*
X015862Y002607D01*
X015848Y002617D01*
X015832Y002624D01*
X015815Y002628D01*
X015798Y002630D01*
X015648Y002630D01*
X015598Y002580D01*
X013698Y002580D01*
X013648Y002630D01*
X013498Y002630D01*
X013481Y002628D01*
X013464Y002624D01*
X013448Y002617D01*
X013434Y002607D01*
X013421Y002594D01*
X013411Y002580D01*
X013404Y002564D01*
X013400Y002547D01*
X013398Y002530D01*
X009648Y001580D02*
X009601Y001582D01*
X009553Y001588D01*
X009507Y001597D01*
X009461Y001610D01*
X009417Y001626D01*
X009373Y001647D01*
X009332Y001670D01*
X009293Y001696D01*
X009256Y001726D01*
X009221Y001759D01*
X009189Y001794D01*
X009160Y001831D01*
X009648Y002780D02*
X009693Y002778D01*
X009739Y002773D01*
X009783Y002765D01*
X009827Y002753D01*
X009870Y002737D01*
X009912Y002719D01*
X009952Y002697D01*
X009990Y002673D01*
X010026Y002646D01*
X010061Y002616D01*
X010092Y002583D01*
X010122Y002548D01*
X010096Y002579D02*
X010127Y002541D01*
X010155Y002501D01*
X010179Y002459D01*
X010200Y002416D01*
X010217Y002370D01*
X010230Y002324D01*
X010240Y002276D01*
X010246Y002228D01*
X010248Y002180D01*
X009648Y002780D02*
X009603Y002778D01*
X009557Y002773D01*
X009513Y002765D01*
X009469Y002753D01*
X009426Y002737D01*
X009384Y002719D01*
X009344Y002697D01*
X009306Y002673D01*
X009270Y002646D01*
X009235Y002616D01*
X009204Y002583D01*
X009174Y002548D01*
X009048Y002180D02*
X009050Y002133D01*
X009055Y002086D01*
X009065Y002040D01*
X009078Y001994D01*
X009094Y001950D01*
X009114Y001907D01*
X009137Y001866D01*
X009163Y001827D01*
X009192Y001790D01*
X009048Y002180D02*
X009050Y002226D01*
X009055Y002272D01*
X009064Y002318D01*
X009076Y002362D01*
X009092Y002406D01*
X009111Y002448D01*
X009133Y002489D01*
X009159Y002527D01*
X009187Y002564D01*
X009648Y001580D02*
X009694Y001582D01*
X009740Y001587D01*
X009786Y001596D01*
X009831Y001608D01*
X009874Y001624D01*
X009916Y001643D01*
X009957Y001666D01*
X009996Y001691D01*
X010032Y001719D01*
X010067Y001750D01*
X010099Y001784D01*
X010128Y001820D01*
X009648Y002580D02*
X009609Y002578D01*
X009570Y002572D01*
X009532Y002563D01*
X009495Y002550D01*
X009459Y002533D01*
X009426Y002513D01*
X009394Y002489D01*
X009365Y002463D01*
X009339Y002434D01*
X009315Y002402D01*
X009295Y002369D01*
X009278Y002333D01*
X009265Y002296D01*
X009256Y002258D01*
X009250Y002219D01*
X009248Y002180D01*
X009398Y002180D02*
X009400Y002210D01*
X009405Y002240D01*
X009414Y002269D01*
X009427Y002296D01*
X009442Y002322D01*
X009461Y002346D01*
X009482Y002367D01*
X009506Y002386D01*
X009532Y002401D01*
X009559Y002414D01*
X009588Y002423D01*
X009618Y002428D01*
X009648Y002430D01*
X010248Y002180D02*
X010246Y002134D01*
X010241Y002088D01*
X010232Y002042D01*
X010220Y001998D01*
X010204Y001954D01*
X010185Y001912D01*
X010163Y001871D01*
X010137Y001833D01*
X010109Y001796D01*
X010048Y002180D02*
X010046Y002141D01*
X010040Y002102D01*
X010031Y002064D01*
X010018Y002027D01*
X010001Y001991D01*
X009981Y001958D01*
X009957Y001926D01*
X009931Y001897D01*
X009902Y001871D01*
X009870Y001847D01*
X009837Y001827D01*
X009801Y001810D01*
X009764Y001797D01*
X009726Y001788D01*
X009687Y001782D01*
X009648Y001780D01*
X009648Y001930D02*
X009678Y001932D01*
X009708Y001937D01*
X009737Y001946D01*
X009764Y001959D01*
X009790Y001974D01*
X009814Y001993D01*
X009835Y002014D01*
X009854Y002038D01*
X009869Y002064D01*
X009882Y002091D01*
X009891Y002120D01*
X009896Y002150D01*
X009898Y002180D01*
X017498Y002180D02*
X017498Y002030D01*
X017500Y002013D01*
X017504Y001996D01*
X017511Y001980D01*
X017521Y001966D01*
X017534Y001953D01*
X017548Y001943D01*
X017564Y001936D01*
X017581Y001932D01*
X017598Y001930D01*
X018298Y001930D01*
X018315Y001932D01*
X018332Y001936D01*
X018348Y001943D01*
X018362Y001953D01*
X018375Y001966D01*
X018385Y001980D01*
X018392Y001996D01*
X018396Y002013D01*
X018398Y002030D01*
X018398Y002180D01*
X018348Y002230D01*
X018348Y004130D01*
X018398Y004180D01*
X018398Y004330D01*
X018396Y004347D01*
X018392Y004364D01*
X018385Y004380D01*
X018375Y004394D01*
X018362Y004407D01*
X018348Y004417D01*
X018332Y004424D01*
X018315Y004428D01*
X018298Y004430D01*
X017598Y004430D01*
X017581Y004428D01*
X017564Y004424D01*
X017548Y004417D01*
X017534Y004407D01*
X017521Y004394D01*
X017511Y004380D01*
X017504Y004364D01*
X017500Y004347D01*
X017498Y004330D01*
X017498Y004180D01*
X017548Y004130D01*
X017548Y002230D01*
X017498Y002180D01*
D13*
X009948Y004580D02*
X009648Y004580D01*
X009348Y004580D01*
X009348Y004780D02*
X009648Y004780D01*
X009948Y004780D01*
X009948Y006580D02*
X009648Y006580D01*
X009348Y006580D01*
X009348Y006780D02*
X009648Y006780D01*
X009948Y006780D01*
X014365Y007180D02*
X014367Y007213D01*
X014373Y007246D01*
X014383Y007279D01*
X014396Y007309D01*
X014413Y007338D01*
X014434Y007365D01*
X014457Y007389D01*
X014483Y007410D01*
X014511Y007428D01*
X014542Y007442D01*
X014573Y007453D01*
X014606Y007460D01*
X014640Y007463D01*
X014673Y007462D01*
X014706Y007457D01*
X014739Y007448D01*
X014770Y007435D01*
X014799Y007419D01*
X014826Y007400D01*
X014851Y007377D01*
X014873Y007352D01*
X014892Y007324D01*
X014907Y007294D01*
X014919Y007263D01*
X014927Y007230D01*
X014931Y007197D01*
X014931Y007163D01*
X014927Y007130D01*
X014919Y007097D01*
X014907Y007066D01*
X014892Y007036D01*
X014873Y007008D01*
X014851Y006983D01*
X014826Y006960D01*
X014799Y006941D01*
X014770Y006925D01*
X014739Y006912D01*
X014706Y006903D01*
X014673Y006898D01*
X014640Y006897D01*
X014606Y006900D01*
X014573Y006907D01*
X014542Y006918D01*
X014511Y006932D01*
X014483Y006950D01*
X014457Y006971D01*
X014434Y006995D01*
X014413Y007022D01*
X014396Y007051D01*
X014383Y007081D01*
X014373Y007114D01*
X014367Y007147D01*
X014365Y007180D01*
X018048Y007280D02*
X018048Y007580D01*
X018048Y007880D01*
X018248Y007880D02*
X018248Y007580D01*
X018248Y007280D01*
X009028Y002680D02*
X009028Y001680D01*
X009648Y001380D02*
X009702Y001382D01*
X009756Y001387D01*
X009809Y001396D01*
X009862Y001409D01*
X009913Y001425D01*
X009963Y001445D01*
X010012Y001468D01*
X010060Y001494D01*
X010105Y001523D01*
X010148Y001556D01*
X010189Y001591D01*
X010228Y001629D01*
X010264Y001669D01*
X010297Y001712D01*
X010327Y001757D01*
X010354Y001804D01*
X010343Y002577D02*
X010313Y002625D01*
X010280Y002670D01*
X010244Y002713D01*
X010206Y002754D01*
X010164Y002791D01*
X010120Y002826D01*
X010074Y002857D01*
X010025Y002886D01*
X009975Y002910D01*
X009923Y002931D01*
X009869Y002949D01*
X009815Y002962D01*
X009760Y002972D01*
X009704Y002978D01*
X009648Y002980D01*
X010329Y002599D02*
X010357Y002551D01*
X010381Y002502D01*
X010401Y002450D01*
X010418Y002398D01*
X010431Y002344D01*
X010440Y002290D01*
X010446Y002235D01*
X010448Y002180D01*
X010446Y002124D01*
X010440Y002067D01*
X010430Y002012D01*
X010416Y001957D01*
X010399Y001904D01*
X010377Y001851D01*
X010352Y001801D01*
X009648Y001380D02*
X009594Y001382D01*
X009541Y001387D01*
X009487Y001396D01*
X009435Y001409D01*
X009384Y001425D01*
X009333Y001445D01*
X009284Y001467D01*
X009237Y001493D01*
X009192Y001523D01*
X009149Y001555D01*
X009108Y001590D01*
X009069Y001628D01*
X009033Y001668D01*
X009037Y002697D02*
X009073Y002736D01*
X009112Y002774D01*
X009152Y002808D01*
X009195Y002840D01*
X009240Y002868D01*
X009287Y002894D01*
X009336Y002917D01*
X009386Y002936D01*
X009437Y002952D01*
X009489Y002964D01*
X009541Y002973D01*
X009595Y002978D01*
X009648Y002980D01*
D14*
X011173Y002830D02*
X011248Y002755D01*
X011398Y002755D01*
X011473Y002830D01*
X011473Y003130D01*
X011398Y003205D01*
X011248Y003205D01*
X011173Y003130D01*
X011173Y002830D01*
X011323Y002905D02*
X011473Y002755D01*
X011633Y002755D02*
X011934Y003055D01*
X011934Y003130D01*
X011858Y003205D01*
X011708Y003205D01*
X011633Y003130D01*
X011633Y002755D02*
X011934Y002755D01*
X014252Y001655D02*
X014477Y001655D01*
X014552Y001580D01*
X014552Y001430D01*
X014477Y001355D01*
X014252Y001355D01*
X014252Y001205D02*
X014252Y001655D01*
X014402Y001355D02*
X014552Y001205D01*
X014712Y001430D02*
X015013Y001430D01*
X014938Y001205D02*
X014938Y001655D01*
X014712Y001430D01*
X016922Y002684D02*
X016922Y002909D01*
X016998Y002984D01*
X017148Y002984D01*
X017223Y002909D01*
X017223Y002684D01*
X017373Y002684D02*
X016922Y002684D01*
X017223Y002834D02*
X017373Y002984D01*
X017373Y003145D02*
X017073Y003445D01*
X016998Y003445D01*
X016922Y003370D01*
X016922Y003220D01*
X016998Y003145D01*
X017373Y003145D02*
X017373Y003445D01*
X018922Y002680D02*
X018998Y002755D01*
X019073Y002755D01*
X019373Y002455D01*
X019373Y002755D01*
X018645Y002370D02*
X018665Y002311D01*
X018688Y002254D01*
X018715Y002197D01*
X018746Y002143D01*
X018779Y002090D01*
X018816Y002040D01*
X018855Y001991D01*
X018898Y001946D01*
X018943Y001902D01*
X018990Y001862D01*
X019040Y001824D01*
X019092Y001789D01*
X019146Y001758D01*
X019201Y001730D01*
X019258Y001705D01*
X019317Y001684D01*
X019377Y001666D01*
X019438Y001651D01*
X019499Y001641D01*
X019561Y001634D01*
X019623Y001630D01*
X019686Y001631D01*
X019748Y001635D01*
X019748Y001793D01*
X019748Y002567D01*
X019748Y002793D01*
X019748Y003567D01*
X019748Y003725D01*
X019623Y003455D02*
X019623Y003155D01*
X019623Y003305D02*
X019172Y003305D01*
X019323Y003155D01*
X018645Y002990D02*
X018628Y002929D01*
X018615Y002868D01*
X018606Y002805D01*
X018600Y002743D01*
X018598Y002680D01*
X018600Y002617D01*
X018606Y002555D01*
X018615Y002492D01*
X018628Y002431D01*
X018645Y002370D01*
X018922Y002530D02*
X018998Y002455D01*
X018922Y002530D02*
X018922Y002680D01*
X018645Y002990D02*
X018665Y003050D01*
X018689Y003109D01*
X018717Y003166D01*
X018748Y003221D01*
X018783Y003275D01*
X018820Y003326D01*
X018861Y003375D01*
X018905Y003421D01*
X018951Y003465D01*
X019000Y003506D01*
X019051Y003544D01*
X019104Y003578D01*
X019160Y003610D01*
X019217Y003637D01*
X019276Y003662D01*
X019336Y003682D01*
X019397Y003700D01*
X019459Y003713D01*
X019522Y003722D01*
X019585Y003728D01*
X019649Y003730D01*
X019713Y003728D01*
X019776Y003722D01*
X019839Y003713D01*
X019901Y003699D01*
X019962Y003682D01*
X020022Y003661D01*
X020081Y003637D01*
X020138Y003609D01*
X020194Y003577D01*
X020247Y003542D01*
X020298Y003505D01*
X020298Y001855D01*
X019813Y001505D02*
X019813Y001055D01*
X019963Y001055D02*
X019662Y001055D01*
X019502Y001055D02*
X019352Y001205D01*
X019277Y001055D02*
X019202Y001130D01*
X019202Y001430D01*
X019277Y001505D01*
X019427Y001505D01*
X019502Y001430D01*
X019502Y001130D01*
X019427Y001055D01*
X019277Y001055D01*
X019662Y001355D02*
X019813Y001505D01*
X019548Y001855D02*
X019623Y001930D01*
X019623Y002080D01*
X019548Y002155D01*
X019473Y002155D01*
X019398Y002080D01*
X019398Y002005D01*
X019398Y002080D02*
X019323Y002155D01*
X019248Y002155D01*
X019172Y002080D01*
X019172Y001930D01*
X019248Y001855D01*
X019748Y001635D02*
X019808Y001642D01*
X019867Y001653D01*
X019925Y001667D01*
X019982Y001685D01*
X020039Y001705D01*
X020094Y001729D01*
X020148Y001756D01*
X020200Y001787D01*
X020250Y001820D01*
X020298Y001855D01*
X015740Y005455D02*
X015440Y005455D01*
X015590Y005455D02*
X015590Y005905D01*
X015440Y005755D01*
X015280Y005830D02*
X015205Y005905D01*
X015055Y005905D01*
X014980Y005830D01*
X014980Y005530D01*
X015055Y005455D01*
X015205Y005455D01*
X015280Y005530D01*
X014823Y005455D02*
X014673Y005455D01*
X014748Y005455D02*
X014748Y005905D01*
X014673Y005905D02*
X014823Y005905D01*
X017816Y006528D02*
X017891Y006453D01*
X018041Y006453D01*
X018116Y006528D01*
X018277Y006528D02*
X018352Y006453D01*
X018502Y006453D01*
X018577Y006528D01*
X018577Y006603D01*
X018502Y006678D01*
X018427Y006678D01*
X018502Y006678D02*
X018577Y006753D01*
X018577Y006828D01*
X018502Y006903D01*
X018352Y006903D01*
X018277Y006828D01*
X018116Y006828D02*
X018041Y006903D01*
X017891Y006903D01*
X017816Y006828D01*
X017816Y006528D01*
X020122Y006784D02*
X020122Y007009D01*
X020198Y007084D01*
X020348Y007084D01*
X020423Y007009D01*
X020423Y006784D01*
X020573Y006784D02*
X020122Y006784D01*
X020423Y006934D02*
X020573Y007084D01*
X020498Y007245D02*
X020573Y007320D01*
X020573Y007470D01*
X020498Y007545D01*
X020423Y007545D01*
X020348Y007470D01*
X020348Y007395D01*
X020348Y007470D02*
X020273Y007545D01*
X020198Y007545D01*
X020122Y007470D01*
X020122Y007320D01*
X020198Y007245D01*
X015634Y009205D02*
X015333Y009205D01*
X015483Y009205D02*
X015483Y009655D01*
X015333Y009505D01*
X015173Y009430D02*
X015098Y009355D01*
X014873Y009355D01*
X014873Y009205D02*
X014873Y009655D01*
X015098Y009655D01*
X015173Y009580D01*
X015173Y009430D01*
X015023Y009355D02*
X015173Y009205D01*
X009023Y007066D02*
X009023Y006765D01*
X009023Y006916D02*
X008572Y006916D01*
X008723Y006765D01*
X008648Y006605D02*
X008572Y006530D01*
X008572Y006380D01*
X008648Y006305D01*
X008948Y006305D01*
X009023Y006380D01*
X009023Y006530D01*
X008948Y006605D01*
X009073Y005195D02*
X009073Y004895D01*
X008773Y005195D01*
X008698Y005195D01*
X008622Y005120D01*
X008622Y004970D01*
X008698Y004895D01*
X008698Y004734D02*
X008622Y004659D01*
X008622Y004509D01*
X008698Y004434D01*
X008998Y004434D01*
X009073Y004509D01*
X009073Y004659D01*
X008998Y004734D01*
D15*
X007542Y004105D02*
X007542Y007255D01*
X006360Y008042D02*
X005967Y008042D01*
X000140Y008042D01*
X000140Y003318D01*
X005967Y003318D01*
X006360Y003318D01*
X005967Y003318D02*
X005967Y008042D01*
X008948Y008680D02*
X009148Y008480D01*
X009298Y008480D01*
X010998Y008480D01*
X011148Y008480D01*
X011348Y008680D01*
X011348Y009280D01*
X011348Y009275D02*
X011348Y010080D01*
X011348Y010680D01*
X011148Y010880D01*
X010998Y010880D01*
X009298Y010880D01*
X009148Y010880D01*
X008948Y010680D01*
X008948Y010080D01*
X008948Y009287D01*
X008948Y009280D02*
X008948Y008680D01*
X009448Y009680D02*
X009450Y009732D01*
X009456Y009784D01*
X009466Y009836D01*
X009479Y009886D01*
X009496Y009936D01*
X009517Y009984D01*
X009542Y010030D01*
X009570Y010074D01*
X009601Y010116D01*
X009635Y010156D01*
X009672Y010193D01*
X009712Y010227D01*
X009754Y010258D01*
X009798Y010286D01*
X009844Y010311D01*
X009892Y010332D01*
X009942Y010349D01*
X009992Y010362D01*
X010044Y010372D01*
X010096Y010378D01*
X010148Y010380D01*
X010200Y010378D01*
X010252Y010372D01*
X010304Y010362D01*
X010354Y010349D01*
X010404Y010332D01*
X010452Y010311D01*
X010498Y010286D01*
X010542Y010258D01*
X010584Y010227D01*
X010624Y010193D01*
X010661Y010156D01*
X010695Y010116D01*
X010726Y010074D01*
X010754Y010030D01*
X010779Y009984D01*
X010800Y009936D01*
X010817Y009886D01*
X010830Y009836D01*
X010840Y009784D01*
X010846Y009732D01*
X010848Y009680D01*
X010846Y009628D01*
X010840Y009576D01*
X010830Y009524D01*
X010817Y009474D01*
X010800Y009424D01*
X010779Y009376D01*
X010754Y009330D01*
X010726Y009286D01*
X010695Y009244D01*
X010661Y009204D01*
X010624Y009167D01*
X010584Y009133D01*
X010542Y009102D01*
X010498Y009074D01*
X010452Y009049D01*
X010404Y009028D01*
X010354Y009011D01*
X010304Y008998D01*
X010252Y008988D01*
X010200Y008982D01*
X010148Y008980D01*
X010096Y008982D01*
X010044Y008988D01*
X009992Y008998D01*
X009942Y009011D01*
X009892Y009028D01*
X009844Y009049D01*
X009798Y009074D01*
X009754Y009102D01*
X009712Y009133D01*
X009672Y009167D01*
X009635Y009204D01*
X009601Y009244D01*
X009570Y009286D01*
X009542Y009330D01*
X009517Y009376D01*
X009496Y009424D01*
X009479Y009474D01*
X009466Y009524D01*
X009456Y009576D01*
X009450Y009628D01*
X009448Y009680D01*
X010998Y009830D02*
X011148Y009480D01*
X011148Y009180D01*
X011148Y009880D02*
X011148Y010180D01*
X014148Y007680D02*
X014548Y007680D01*
X014748Y007680D01*
X014548Y007680D02*
X016148Y007680D01*
X016148Y003680D01*
X014148Y003680D01*
X014148Y007680D01*
X020695Y006318D02*
X021089Y006318D01*
X020695Y006318D02*
X020695Y011042D01*
X021089Y011042D01*
X022270Y011042D02*
X025026Y011042D01*
X025026Y006318D01*
X022270Y006318D01*
X022270Y005542D02*
X025026Y005542D01*
X025026Y000818D01*
X022270Y000818D01*
X021089Y000818D02*
X020695Y000818D01*
X020695Y005542D01*
X021089Y005542D01*
X025026Y005542D02*
X025026Y004952D01*
X025420Y004952D01*
X025420Y004361D01*
X026207Y004361D01*
X026207Y001999D01*
X025420Y001999D01*
X025420Y001408D01*
X025026Y001408D01*
X025026Y000818D01*
X025026Y006318D02*
X025026Y006908D01*
X025420Y006908D01*
X025420Y007499D01*
X026207Y007499D01*
X026207Y009861D01*
X025420Y009861D01*
X025420Y010452D01*
X025026Y010452D01*
X025026Y011042D01*
X002738Y007373D02*
X002738Y006428D01*
X001833Y006428D01*
X001833Y007373D01*
X002738Y007373D01*
X002738Y004932D02*
X001833Y004932D01*
X001833Y003987D01*
X002738Y003987D01*
X002738Y004932D01*
D16*
X005132Y004889D02*
X005132Y005119D01*
X005209Y005195D01*
X005286Y005195D01*
X005362Y005119D01*
X005362Y004889D01*
X005209Y004735D02*
X005132Y004658D01*
X005132Y004505D01*
X005209Y004428D01*
X005516Y004428D01*
X005592Y004505D01*
X005592Y004658D01*
X005516Y004735D01*
X005592Y004889D02*
X005132Y004889D01*
X005592Y004889D02*
X005592Y005119D01*
X005516Y005195D01*
X005439Y005195D01*
X005362Y005119D01*
X005362Y005809D02*
X005362Y005963D01*
X005132Y006116D02*
X005132Y005809D01*
X005592Y005809D01*
X005592Y006116D01*
X005516Y006270D02*
X005362Y006270D01*
X005286Y006346D01*
X005286Y006577D01*
X005132Y006577D02*
X005592Y006577D01*
X005592Y006346D01*
X005516Y006270D01*
X005516Y006730D02*
X005592Y006807D01*
X005592Y007037D01*
X005669Y007037D02*
X005746Y006960D01*
X005746Y006884D01*
X005669Y007037D02*
X005286Y007037D01*
X005286Y006807D01*
X005362Y006730D01*
X005516Y006730D01*
X005516Y007190D02*
X005362Y007190D01*
X005286Y007267D01*
X005286Y007421D01*
X005362Y007497D01*
X005439Y007497D01*
X005439Y007190D01*
X005516Y007190D02*
X005592Y007267D01*
X005592Y007421D01*
X006726Y009600D02*
X006726Y009960D01*
X006906Y009960D01*
X006967Y009900D01*
X006967Y009780D01*
X006906Y009720D01*
X006726Y009720D01*
X006846Y009720D02*
X006967Y009600D01*
X007095Y009600D02*
X007335Y009600D01*
X007463Y009660D02*
X007523Y009600D01*
X007643Y009600D01*
X007703Y009660D01*
X007703Y009720D01*
X007643Y009780D01*
X007523Y009780D01*
X007463Y009840D01*
X007463Y009900D01*
X007523Y009960D01*
X007643Y009960D01*
X007703Y009900D01*
X007831Y009960D02*
X007831Y009600D01*
X008071Y009600D01*
X007951Y009780D02*
X007831Y009780D01*
X007831Y009960D02*
X008071Y009960D01*
X008200Y009960D02*
X008440Y009960D01*
X008320Y009960D02*
X008320Y009600D01*
X007335Y009960D02*
X007095Y009960D01*
X007095Y009600D01*
X007095Y009780D02*
X007215Y009780D01*
X005362Y004275D02*
X005209Y004275D01*
X005132Y004198D01*
X005132Y003968D01*
X005592Y003968D01*
X005439Y003968D02*
X005439Y004198D01*
X005362Y004275D01*
X006668Y001810D02*
X006608Y001750D01*
X006608Y001690D01*
X006668Y001630D01*
X006788Y001630D01*
X006848Y001570D01*
X006848Y001510D01*
X006788Y001450D01*
X006668Y001450D01*
X006608Y001510D01*
X006848Y001750D02*
X006788Y001810D01*
X006668Y001810D01*
X006976Y001810D02*
X007217Y001810D01*
X007096Y001810D02*
X007096Y001450D01*
X007345Y001450D02*
X007345Y001690D01*
X007465Y001810D01*
X007585Y001690D01*
X007585Y001450D01*
X007585Y001630D02*
X007345Y001630D01*
X007713Y001810D02*
X007953Y001810D01*
X007833Y001810D02*
X007833Y001450D01*
X008081Y001510D02*
X008141Y001450D01*
X008261Y001450D01*
X008321Y001510D01*
X008321Y001810D01*
X008450Y001750D02*
X008450Y001690D01*
X008510Y001630D01*
X008630Y001630D01*
X008690Y001570D01*
X008690Y001510D01*
X008630Y001450D01*
X008510Y001450D01*
X008450Y001510D01*
X008450Y001750D02*
X008510Y001810D01*
X008630Y001810D01*
X008690Y001750D01*
X008081Y001810D02*
X008081Y001510D01*
D17*
X012648Y002180D02*
X013048Y002180D01*
X016248Y002180D02*
X016648Y002180D01*
X017948Y001580D02*
X017948Y001180D01*
X017948Y004780D02*
X017948Y005180D01*
X019648Y005180D02*
X019648Y005580D01*
X019648Y008780D02*
X019648Y009180D01*
X017148Y008680D02*
X016748Y008680D01*
X013548Y008680D02*
X013148Y008680D01*
D18*
X013728Y008680D03*
X016568Y008680D03*
X016068Y002180D03*
X013228Y002180D03*
D19*
X017948Y001760D03*
X017948Y004600D03*
X019648Y005760D03*
X019648Y008600D03*
D20*
X012498Y006880D02*
X012498Y004480D01*
X012496Y004423D01*
X012490Y004367D01*
X012481Y004311D01*
X012468Y004255D01*
X012451Y004201D01*
X012431Y004148D01*
X012407Y004097D01*
X012379Y004047D01*
X012349Y003999D01*
X012315Y003953D01*
X012278Y003910D01*
X012239Y003869D01*
X012197Y003831D01*
X012152Y003796D01*
X012105Y003764D01*
X012056Y003735D01*
X012006Y003709D01*
X011953Y003687D01*
X011900Y003668D01*
X011845Y003653D01*
X011789Y003642D01*
X011733Y003634D01*
X011676Y003630D01*
X011620Y003630D01*
X011563Y003634D01*
X011507Y003642D01*
X011451Y003653D01*
X011396Y003668D01*
X011343Y003687D01*
X011290Y003709D01*
X011240Y003735D01*
X011191Y003764D01*
X011144Y003796D01*
X011099Y003831D01*
X011057Y003869D01*
X011018Y003910D01*
X010981Y003953D01*
X010947Y003999D01*
X010917Y004047D01*
X010889Y004097D01*
X010865Y004148D01*
X010845Y004201D01*
X010828Y004255D01*
X010815Y004311D01*
X010806Y004367D01*
X010800Y004423D01*
X010798Y004480D01*
X010798Y006880D01*
X010800Y006937D01*
X010806Y006993D01*
X010815Y007049D01*
X010828Y007105D01*
X010845Y007159D01*
X010865Y007212D01*
X010889Y007263D01*
X010917Y007313D01*
X010947Y007361D01*
X010981Y007407D01*
X011018Y007450D01*
X011057Y007491D01*
X011099Y007529D01*
X011144Y007564D01*
X011191Y007596D01*
X011240Y007625D01*
X011290Y007651D01*
X011343Y007673D01*
X011396Y007692D01*
X011451Y007707D01*
X011507Y007718D01*
X011563Y007726D01*
X011620Y007730D01*
X011676Y007730D01*
X011733Y007726D01*
X011789Y007718D01*
X011845Y007707D01*
X011900Y007692D01*
X011953Y007673D01*
X012006Y007651D01*
X012056Y007625D01*
X012105Y007596D01*
X012152Y007564D01*
X012197Y007529D01*
X012239Y007491D01*
X012278Y007450D01*
X012315Y007407D01*
X012349Y007361D01*
X012379Y007313D01*
X012407Y007263D01*
X012431Y007212D01*
X012451Y007159D01*
X012468Y007105D01*
X012481Y007049D01*
X012490Y006993D01*
X012496Y006937D01*
X012498Y006880D01*
M02*
