G75*
G70*
%OFA0B0*%
%FSLAX24Y24*%
%IPPOS*%
%LPD*%
%AMOC8*
5,1,8,0,0,1.08239X$1,22.5*
%
%ADD10OC8,0.0480*%
%ADD11C,0.0740*%
%ADD12C,0.1266*%
%ADD13C,0.0480*%
%ADD14C,0.0860*%
%ADD15OC8,0.0680*%
%ADD16C,0.0160*%
%ADD17C,0.0240*%
%ADD18C,0.0860*%
D10*
X009148Y002180D03*
X010148Y002180D03*
X012648Y002180D03*
X016648Y002180D03*
X017948Y001180D03*
X019648Y002180D03*
X018898Y002680D03*
X019648Y003180D03*
X019648Y005180D03*
X017948Y005180D03*
X017648Y007580D03*
X018648Y007580D03*
X017148Y008680D03*
X019648Y009180D03*
X013148Y008680D03*
X009648Y007180D03*
X009648Y006180D03*
X009648Y005180D03*
X009648Y004180D03*
D11*
X008093Y004302D03*
X008093Y005236D03*
X008093Y006124D03*
X008093Y007058D03*
X008868Y008790D03*
X011428Y008790D03*
X011428Y010570D03*
X008868Y010570D03*
D12*
X007148Y007963D03*
X007148Y003397D03*
D13*
X011648Y004730D03*
X011648Y006630D03*
D14*
X021679Y006711D03*
X021679Y007696D03*
X023648Y008680D03*
X021679Y009664D03*
X021679Y010649D03*
X021679Y005149D03*
X021679Y004164D03*
X023648Y003180D03*
X021679Y002196D03*
X021679Y001211D03*
D15*
X016648Y004180D03*
X016648Y005180D03*
X016648Y006180D03*
X016648Y007180D03*
X013648Y007180D03*
X013648Y006180D03*
X013648Y005180D03*
X013648Y004180D03*
D16*
X006178Y001289D02*
X006219Y001129D01*
X006307Y000989D01*
X006434Y000883D01*
X006588Y000821D01*
X006667Y000810D01*
X017696Y000810D01*
X017508Y000998D01*
X017508Y001362D01*
X017628Y001482D01*
X017628Y001794D01*
X017677Y001911D01*
X018458Y002693D01*
X018458Y002862D01*
X018716Y003120D01*
X019080Y003120D01*
X019338Y002862D01*
X019338Y002498D01*
X019080Y002240D01*
X018910Y002240D01*
X018268Y001597D01*
X018268Y001482D01*
X018388Y001362D01*
X018388Y000998D01*
X018200Y000810D01*
X021190Y000810D01*
X021145Y000855D01*
X021049Y001086D01*
X021049Y001876D01*
X019966Y001876D01*
X019830Y001740D01*
X019466Y001740D01*
X019208Y001998D01*
X019208Y002362D01*
X019466Y002620D01*
X019830Y002620D01*
X019934Y002516D01*
X021130Y002516D01*
X021145Y002553D01*
X021323Y002730D01*
X021435Y002777D01*
X021415Y002785D01*
X021284Y002916D01*
X021213Y003087D01*
X021213Y003273D01*
X021284Y003444D01*
X021415Y003575D01*
X021435Y003583D01*
X021323Y003630D01*
X021145Y003807D01*
X021049Y004039D01*
X021049Y004829D01*
X019919Y004829D01*
X019830Y004740D01*
X019466Y004740D01*
X019208Y004998D01*
X019208Y005362D01*
X019466Y005620D01*
X019830Y005620D01*
X019982Y005469D01*
X021130Y005469D01*
X021145Y005505D01*
X021323Y005683D01*
X021554Y005779D01*
X021805Y005779D01*
X022036Y005683D01*
X022213Y005505D01*
X022309Y005274D01*
X022309Y004039D01*
X022213Y003807D01*
X022036Y003630D01*
X021924Y003583D01*
X021943Y003575D01*
X022075Y003444D01*
X022146Y003273D01*
X022146Y003087D01*
X022075Y002916D01*
X021943Y002785D01*
X021924Y002777D01*
X022036Y002730D01*
X022213Y002553D01*
X022229Y002516D01*
X022531Y002516D01*
X023033Y003018D01*
X023018Y003055D01*
X023018Y003305D01*
X023114Y003537D01*
X023291Y003714D01*
X023523Y003810D01*
X023773Y003810D01*
X024005Y003714D01*
X024182Y003537D01*
X024278Y003305D01*
X024278Y003055D01*
X024182Y002823D01*
X024005Y002646D01*
X023773Y002550D01*
X023523Y002550D01*
X023486Y002565D01*
X022935Y002014D01*
X022845Y001924D01*
X022727Y001876D01*
X022309Y001876D01*
X022309Y001086D01*
X022213Y000855D01*
X022169Y000810D01*
X023399Y000810D01*
X023384Y000816D01*
X023253Y000947D01*
X023182Y001119D01*
X023182Y001304D01*
X023253Y001476D01*
X023384Y001607D01*
X023555Y001678D01*
X023741Y001678D01*
X023912Y001607D01*
X024043Y001476D01*
X024114Y001304D01*
X024114Y001119D01*
X024043Y000947D01*
X023912Y000816D01*
X023897Y000810D01*
X024383Y000810D01*
X024368Y000816D01*
X024237Y000947D01*
X024166Y001119D01*
X024166Y001304D01*
X024237Y001476D01*
X024368Y001607D01*
X024539Y001678D01*
X024725Y001678D01*
X024896Y001607D01*
X025027Y001476D01*
X025098Y001304D01*
X025098Y001119D01*
X025027Y000947D01*
X024896Y000816D01*
X024881Y000810D01*
X024948Y000810D01*
X024995Y000815D01*
X025081Y000850D01*
X025147Y000917D01*
X025183Y001003D01*
X025188Y001050D01*
X025188Y010767D01*
X025183Y010821D01*
X025141Y010922D01*
X025064Y010999D01*
X024963Y011041D01*
X024909Y011046D01*
X024891Y011046D01*
X024896Y011044D01*
X025027Y010913D01*
X025098Y010741D01*
X025098Y010556D01*
X025027Y010384D01*
X024896Y010253D01*
X024725Y010182D01*
X024539Y010182D01*
X024368Y010253D01*
X024237Y010384D01*
X024166Y010556D01*
X024166Y010741D01*
X024237Y010913D01*
X024368Y011044D01*
X024374Y011046D01*
X023906Y011046D01*
X023912Y011044D01*
X024043Y010913D01*
X024114Y010741D01*
X024114Y010556D01*
X024043Y010384D01*
X023912Y010253D01*
X023741Y010182D01*
X023555Y010182D01*
X023384Y010253D01*
X023253Y010384D01*
X023182Y010556D01*
X023182Y010741D01*
X023253Y010913D01*
X023384Y011044D01*
X023389Y011046D01*
X022173Y011046D01*
X022213Y011005D01*
X022309Y010774D01*
X022309Y009539D01*
X022213Y009307D01*
X022036Y009130D01*
X021924Y009083D01*
X021943Y009075D01*
X022075Y008944D01*
X022146Y008773D01*
X022146Y008587D01*
X022075Y008416D01*
X021943Y008285D01*
X021924Y008277D01*
X022036Y008230D01*
X022213Y008053D01*
X022309Y007821D01*
X022309Y006586D01*
X022213Y006355D01*
X022036Y006177D01*
X021805Y006081D01*
X021554Y006081D01*
X021323Y006177D01*
X021145Y006355D01*
X021143Y006360D01*
X017780Y006360D01*
X017329Y005909D01*
X017212Y005860D01*
X017092Y005860D01*
X016912Y005680D01*
X017092Y005500D01*
X017646Y005500D01*
X017766Y005620D01*
X018130Y005620D01*
X018388Y005362D01*
X018388Y004998D01*
X018130Y004740D01*
X017766Y004740D01*
X017646Y004860D01*
X017092Y004860D01*
X016912Y004680D01*
X017188Y004404D01*
X017188Y003956D01*
X016968Y003736D01*
X016968Y002482D01*
X018247Y002482D01*
X018089Y002324D02*
X017088Y002324D01*
X017088Y002362D02*
X016968Y002482D01*
X016968Y002641D02*
X018406Y002641D01*
X018458Y002799D02*
X016968Y002799D01*
X016968Y002958D02*
X018553Y002958D01*
X018712Y003116D02*
X016968Y003116D01*
X016968Y003275D02*
X021214Y003275D01*
X021213Y003116D02*
X019084Y003116D01*
X019243Y002958D02*
X021267Y002958D01*
X021401Y002799D02*
X019338Y002799D01*
X019338Y002641D02*
X021233Y002641D01*
X021958Y002799D02*
X022814Y002799D01*
X022656Y002641D02*
X022126Y002641D01*
X022092Y002958D02*
X022973Y002958D01*
X023018Y003116D02*
X022146Y003116D01*
X022145Y003275D02*
X023018Y003275D01*
X023071Y003433D02*
X022079Y003433D01*
X021943Y003592D02*
X023168Y003592D01*
X023378Y003750D02*
X022156Y003750D01*
X022255Y003909D02*
X025188Y003909D01*
X025188Y004067D02*
X022309Y004067D01*
X022309Y004226D02*
X025188Y004226D01*
X025188Y004384D02*
X022309Y004384D01*
X022309Y004543D02*
X025188Y004543D01*
X025188Y004701D02*
X024770Y004701D01*
X024725Y004682D02*
X024896Y004753D01*
X025027Y004884D01*
X025098Y005056D01*
X025098Y005241D01*
X025027Y005413D01*
X024896Y005544D01*
X024725Y005615D01*
X024539Y005615D01*
X024368Y005544D01*
X024237Y005413D01*
X024166Y005241D01*
X024166Y005056D01*
X024237Y004884D01*
X024368Y004753D01*
X024539Y004682D01*
X024725Y004682D01*
X024494Y004701D02*
X023786Y004701D01*
X023741Y004682D02*
X023912Y004753D01*
X024043Y004884D01*
X024114Y005056D01*
X024114Y005241D01*
X024043Y005413D01*
X023912Y005544D01*
X023741Y005615D01*
X023555Y005615D01*
X023384Y005544D01*
X023253Y005413D01*
X023182Y005241D01*
X023182Y005056D01*
X023253Y004884D01*
X023384Y004753D01*
X023555Y004682D01*
X023741Y004682D01*
X023510Y004701D02*
X022309Y004701D01*
X022309Y004860D02*
X023278Y004860D01*
X023197Y005018D02*
X022309Y005018D01*
X022309Y005177D02*
X023182Y005177D01*
X023220Y005335D02*
X022284Y005335D01*
X022218Y005494D02*
X023334Y005494D01*
X023962Y005494D02*
X024318Y005494D01*
X024205Y005335D02*
X024075Y005335D01*
X024114Y005177D02*
X024166Y005177D01*
X024182Y005018D02*
X024098Y005018D01*
X024018Y004860D02*
X024262Y004860D01*
X025002Y004860D02*
X025188Y004860D01*
X025188Y005018D02*
X025083Y005018D01*
X025098Y005177D02*
X025188Y005177D01*
X025188Y005335D02*
X025060Y005335D01*
X024946Y005494D02*
X025188Y005494D01*
X025188Y005652D02*
X022067Y005652D01*
X021292Y005652D02*
X016940Y005652D01*
X017042Y005811D02*
X025188Y005811D01*
X025188Y005969D02*
X017389Y005969D01*
X017548Y006128D02*
X021443Y006128D01*
X021214Y006286D02*
X017706Y006286D01*
X017475Y006955D02*
X017519Y006999D01*
X017660Y007140D01*
X017830Y007140D01*
X018088Y007398D01*
X018088Y007762D01*
X017830Y008020D01*
X017466Y008020D01*
X017208Y007762D01*
X017208Y007593D01*
X017115Y007500D01*
X017092Y007500D01*
X016968Y007624D01*
X016968Y008047D01*
X017160Y008240D01*
X017330Y008240D01*
X017450Y008360D01*
X019212Y008360D01*
X019329Y008409D01*
X019660Y008740D01*
X019830Y008740D01*
X020088Y008998D01*
X020088Y009167D01*
X020265Y009344D01*
X021130Y009344D01*
X021145Y009307D01*
X021323Y009130D01*
X021435Y009083D01*
X021415Y009075D01*
X021284Y008944D01*
X021213Y008773D01*
X021213Y008587D01*
X021284Y008416D01*
X021415Y008285D01*
X021435Y008277D01*
X021323Y008230D01*
X021145Y008053D01*
X021049Y007821D01*
X021049Y007000D01*
X017584Y007000D01*
X017475Y006955D01*
X017599Y007079D02*
X021049Y007079D01*
X021049Y007237D02*
X017927Y007237D01*
X018086Y007396D02*
X021049Y007396D01*
X021049Y007554D02*
X018088Y007554D01*
X018088Y007713D02*
X021049Y007713D01*
X021070Y007871D02*
X017979Y007871D01*
X017317Y007871D02*
X016968Y007871D01*
X016968Y007713D02*
X017208Y007713D01*
X017169Y007554D02*
X017038Y007554D01*
X016968Y008030D02*
X021136Y008030D01*
X021281Y008188D02*
X017108Y008188D01*
X017437Y008347D02*
X021354Y008347D01*
X021247Y008505D02*
X019425Y008505D01*
X019584Y008664D02*
X021213Y008664D01*
X021234Y008822D02*
X019912Y008822D01*
X020071Y008981D02*
X021321Y008981D01*
X021314Y009139D02*
X020088Y009139D01*
X020218Y009298D02*
X021155Y009298D01*
X022045Y009139D02*
X025188Y009139D01*
X025188Y008981D02*
X022038Y008981D01*
X022125Y008822D02*
X025188Y008822D01*
X025188Y008664D02*
X022146Y008664D01*
X022112Y008505D02*
X025188Y008505D01*
X025188Y008347D02*
X022005Y008347D01*
X022078Y008188D02*
X025188Y008188D01*
X025188Y008030D02*
X022223Y008030D01*
X022289Y007871D02*
X025188Y007871D01*
X025188Y007713D02*
X022309Y007713D01*
X022309Y007554D02*
X025188Y007554D01*
X025188Y007396D02*
X022309Y007396D01*
X022309Y007237D02*
X025188Y007237D01*
X025188Y007079D02*
X024924Y007079D01*
X024896Y007107D02*
X024725Y007178D01*
X024539Y007178D01*
X024368Y007107D01*
X024237Y006976D01*
X024166Y006804D01*
X024166Y006619D01*
X024237Y006447D01*
X024368Y006316D01*
X024539Y006245D01*
X024725Y006245D01*
X024896Y006316D01*
X025027Y006447D01*
X025098Y006619D01*
X025098Y006804D01*
X025027Y006976D01*
X024896Y007107D01*
X025050Y006920D02*
X025188Y006920D01*
X025188Y006762D02*
X025098Y006762D01*
X025092Y006603D02*
X025188Y006603D01*
X025188Y006445D02*
X025024Y006445D01*
X025188Y006286D02*
X024823Y006286D01*
X024441Y006286D02*
X023839Y006286D01*
X023912Y006316D02*
X024043Y006447D01*
X024114Y006619D01*
X024114Y006804D01*
X024043Y006976D01*
X023912Y007107D01*
X023741Y007178D01*
X023555Y007178D01*
X023384Y007107D01*
X023253Y006976D01*
X023182Y006804D01*
X023182Y006619D01*
X023253Y006447D01*
X023384Y006316D01*
X023555Y006245D01*
X023741Y006245D01*
X023912Y006316D01*
X024040Y006445D02*
X024240Y006445D01*
X024172Y006603D02*
X024108Y006603D01*
X024114Y006762D02*
X024166Y006762D01*
X024214Y006920D02*
X024066Y006920D01*
X023940Y007079D02*
X024340Y007079D01*
X023356Y007079D02*
X022309Y007079D01*
X022309Y006920D02*
X023230Y006920D01*
X023182Y006762D02*
X022309Y006762D01*
X022309Y006603D02*
X023188Y006603D01*
X023256Y006445D02*
X022251Y006445D01*
X022145Y006286D02*
X023457Y006286D01*
X021916Y006128D02*
X025188Y006128D01*
X021140Y005494D02*
X019957Y005494D01*
X019339Y005494D02*
X018257Y005494D01*
X018388Y005335D02*
X019208Y005335D01*
X019208Y005177D02*
X018388Y005177D01*
X018388Y005018D02*
X019208Y005018D01*
X019346Y004860D02*
X018250Y004860D01*
X017646Y004860D02*
X017091Y004860D01*
X016933Y004701D02*
X021049Y004701D01*
X021049Y004543D02*
X017049Y004543D01*
X017188Y004384D02*
X021049Y004384D01*
X021049Y004226D02*
X017188Y004226D01*
X017188Y004067D02*
X021049Y004067D01*
X021103Y003909D02*
X017140Y003909D01*
X016982Y003750D02*
X021203Y003750D01*
X021416Y003592D02*
X016968Y003592D01*
X016968Y003433D02*
X021280Y003433D01*
X019328Y002482D02*
X019322Y002482D01*
X019208Y002324D02*
X019164Y002324D01*
X019208Y002165D02*
X018835Y002165D01*
X018677Y002007D02*
X019208Y002007D01*
X019358Y001848D02*
X018518Y001848D01*
X018360Y001690D02*
X021049Y001690D01*
X021049Y001848D02*
X019938Y001848D01*
X021049Y001531D02*
X018268Y001531D01*
X018378Y001373D02*
X021049Y001373D01*
X021049Y001214D02*
X018388Y001214D01*
X018388Y001056D02*
X021062Y001056D01*
X021128Y000897D02*
X018287Y000897D01*
X017609Y000897D02*
X006417Y000897D01*
X006265Y001056D02*
X017508Y001056D01*
X017508Y001214D02*
X006197Y001214D01*
X006178Y001289D02*
X006178Y001332D01*
X006178Y001380D01*
X006184Y001467D01*
X006178Y001474D01*
X006178Y010395D01*
X006189Y010410D01*
X006178Y010488D01*
X006178Y010567D01*
X006171Y010574D01*
X006171Y010579D01*
X006197Y010728D01*
X006267Y010861D01*
X006376Y010966D01*
X006511Y011032D01*
X006574Y011046D01*
X021186Y011046D01*
X021145Y011005D01*
X021049Y010774D01*
X021049Y009984D01*
X020068Y009984D01*
X019951Y009936D01*
X019635Y009620D01*
X019466Y009620D01*
X019208Y009362D01*
X019208Y009193D01*
X019015Y009000D01*
X017450Y009000D01*
X017330Y009120D01*
X016966Y009120D01*
X016708Y008862D01*
X016708Y008693D01*
X016377Y008361D01*
X016328Y008244D01*
X016328Y007624D01*
X016204Y007500D01*
X015984Y007500D01*
X015867Y007451D01*
X015777Y007361D01*
X014877Y006461D01*
X014828Y006344D01*
X014828Y004313D01*
X014015Y003500D01*
X008780Y003500D01*
X008439Y003842D01*
X008576Y003979D01*
X008663Y004189D01*
X008663Y004415D01*
X008576Y004625D01*
X008432Y004769D01*
X008576Y004913D01*
X008663Y005123D01*
X008663Y005350D01*
X008576Y005559D01*
X008455Y005680D01*
X008576Y005801D01*
X008663Y006010D01*
X008663Y006237D01*
X008576Y006447D01*
X008416Y006607D01*
X008206Y006694D01*
X007979Y006694D01*
X007770Y006607D01*
X007610Y006447D01*
X007523Y006237D01*
X007523Y006010D01*
X007610Y005801D01*
X007730Y005680D01*
X007610Y005559D01*
X007523Y005350D01*
X007523Y005123D01*
X007610Y004913D01*
X007754Y004769D01*
X007610Y004625D01*
X007523Y004415D01*
X007523Y004189D01*
X007546Y004133D01*
X007314Y004230D01*
X006982Y004230D01*
X006676Y004103D01*
X006442Y003868D01*
X006315Y003562D01*
X006315Y003231D01*
X006442Y002925D01*
X006676Y002690D01*
X006982Y002563D01*
X007314Y002563D01*
X007620Y002690D01*
X007854Y002925D01*
X007981Y003231D01*
X007981Y003394D01*
X008377Y002999D01*
X008467Y002909D01*
X008584Y002860D01*
X014212Y002860D01*
X014329Y002909D01*
X015329Y003909D01*
X015419Y003999D01*
X015468Y004116D01*
X015468Y006147D01*
X016180Y006860D01*
X016204Y006860D01*
X016384Y006680D01*
X016108Y006404D01*
X016108Y005956D01*
X016384Y005680D01*
X016108Y005404D01*
X016108Y004956D01*
X016384Y004680D01*
X016108Y004404D01*
X016108Y003956D01*
X016328Y003736D01*
X016328Y002482D01*
X016208Y002362D01*
X016208Y001998D01*
X016466Y001740D01*
X016830Y001740D01*
X017088Y001998D01*
X017088Y002362D01*
X017088Y002165D02*
X017930Y002165D01*
X017772Y002007D02*
X017088Y002007D01*
X016938Y001848D02*
X017650Y001848D01*
X017628Y001690D02*
X006178Y001690D01*
X006178Y001848D02*
X009858Y001848D01*
X009966Y001740D02*
X009708Y001998D01*
X009708Y002362D01*
X009966Y002620D01*
X010330Y002620D01*
X010450Y002500D01*
X012346Y002500D01*
X012466Y002620D01*
X012830Y002620D01*
X013088Y002362D01*
X013088Y001998D01*
X012830Y001740D01*
X012466Y001740D01*
X012346Y001860D01*
X010450Y001860D01*
X010330Y001740D01*
X009966Y001740D01*
X009708Y002007D02*
X006178Y002007D01*
X006178Y002165D02*
X009708Y002165D01*
X009708Y002324D02*
X006178Y002324D01*
X006178Y002482D02*
X009828Y002482D01*
X010438Y001848D02*
X012358Y001848D01*
X012938Y001848D02*
X016358Y001848D01*
X016208Y002007D02*
X013088Y002007D01*
X013088Y002165D02*
X016208Y002165D01*
X016208Y002324D02*
X013088Y002324D01*
X012968Y002482D02*
X016328Y002482D01*
X016328Y002641D02*
X007500Y002641D01*
X007728Y002799D02*
X016328Y002799D01*
X016328Y002958D02*
X014378Y002958D01*
X014536Y003116D02*
X016328Y003116D01*
X016328Y003275D02*
X014695Y003275D01*
X014853Y003433D02*
X016328Y003433D01*
X016328Y003592D02*
X015012Y003592D01*
X015170Y003750D02*
X016314Y003750D01*
X016156Y003909D02*
X015329Y003909D01*
X015447Y004067D02*
X016108Y004067D01*
X016108Y004226D02*
X015468Y004226D01*
X015468Y004384D02*
X016108Y004384D01*
X016247Y004543D02*
X015468Y004543D01*
X015468Y004701D02*
X016363Y004701D01*
X016205Y004860D02*
X015468Y004860D01*
X015468Y005018D02*
X016108Y005018D01*
X016108Y005177D02*
X015468Y005177D01*
X015468Y005335D02*
X016108Y005335D01*
X016198Y005494D02*
X015468Y005494D01*
X015468Y005652D02*
X016356Y005652D01*
X016254Y005811D02*
X015468Y005811D01*
X015468Y005969D02*
X016108Y005969D01*
X016108Y006128D02*
X015468Y006128D01*
X015606Y006286D02*
X016108Y006286D01*
X016149Y006445D02*
X015765Y006445D01*
X015923Y006603D02*
X016307Y006603D01*
X016303Y006762D02*
X016082Y006762D01*
X015494Y007079D02*
X014188Y007079D01*
X014188Y006956D02*
X014188Y007404D01*
X013968Y007624D01*
X013968Y008244D01*
X013919Y008361D01*
X013588Y008693D01*
X013588Y008862D01*
X013330Y009120D01*
X012966Y009120D01*
X012846Y009000D01*
X011958Y009000D01*
X011911Y009113D01*
X011751Y009273D01*
X011541Y009360D01*
X011314Y009360D01*
X011105Y009273D01*
X010945Y009113D01*
X010943Y009110D01*
X009352Y009110D01*
X009351Y009113D01*
X009191Y009273D01*
X008981Y009360D01*
X008754Y009360D01*
X008545Y009273D01*
X008385Y009113D01*
X008298Y008903D01*
X008298Y008677D01*
X008385Y008467D01*
X008545Y008307D01*
X008754Y008220D01*
X008981Y008220D01*
X009191Y008307D01*
X009351Y008467D01*
X009352Y008470D01*
X010943Y008470D01*
X010945Y008467D01*
X011105Y008307D01*
X011314Y008220D01*
X011541Y008220D01*
X011751Y008307D01*
X011804Y008360D01*
X012846Y008360D01*
X012966Y008240D01*
X013135Y008240D01*
X013328Y008047D01*
X013328Y007624D01*
X013108Y007404D01*
X013108Y006956D01*
X013384Y006680D01*
X013204Y006500D01*
X012280Y006500D01*
X012088Y006693D01*
X012088Y006718D01*
X012021Y006879D01*
X011897Y007003D01*
X011735Y007070D01*
X011560Y007070D01*
X011399Y007003D01*
X011275Y006879D01*
X011208Y006718D01*
X011208Y006643D01*
X011065Y006500D01*
X009950Y006500D01*
X009830Y006620D01*
X009466Y006620D01*
X009208Y006362D01*
X009208Y005998D01*
X009466Y005740D01*
X009830Y005740D01*
X009950Y005860D01*
X011262Y005860D01*
X011379Y005909D01*
X011660Y006190D01*
X011685Y006190D01*
X011967Y005909D01*
X012084Y005860D01*
X013204Y005860D01*
X013384Y005680D01*
X013204Y005500D01*
X012034Y005500D01*
X011917Y005451D01*
X011648Y005183D01*
X011379Y005451D01*
X011262Y005500D01*
X009950Y005500D01*
X009830Y005620D01*
X009466Y005620D01*
X009208Y005362D01*
X009208Y004998D01*
X009466Y004740D01*
X009830Y004740D01*
X009950Y004860D01*
X011065Y004860D01*
X011208Y004717D01*
X011208Y004642D01*
X011275Y004481D01*
X011399Y004357D01*
X011560Y004290D01*
X011735Y004290D01*
X011897Y004357D01*
X012021Y004481D01*
X012088Y004642D01*
X012088Y004717D01*
X012230Y004860D01*
X013204Y004860D01*
X013424Y004640D01*
X013872Y004640D01*
X014188Y004956D01*
X014188Y005404D01*
X013912Y005680D01*
X014188Y005956D01*
X014188Y006404D01*
X013912Y006680D01*
X014188Y006956D01*
X014152Y006920D02*
X015335Y006920D01*
X015177Y006762D02*
X013993Y006762D01*
X013989Y006603D02*
X015018Y006603D01*
X014870Y006445D02*
X014147Y006445D01*
X014188Y006286D02*
X014828Y006286D01*
X014828Y006128D02*
X014188Y006128D01*
X014188Y005969D02*
X014828Y005969D01*
X014828Y005811D02*
X014042Y005811D01*
X013940Y005652D02*
X014828Y005652D01*
X014828Y005494D02*
X014098Y005494D01*
X014188Y005335D02*
X014828Y005335D01*
X014828Y005177D02*
X014188Y005177D01*
X014188Y005018D02*
X014828Y005018D01*
X014828Y004860D02*
X014091Y004860D01*
X013933Y004701D02*
X014828Y004701D01*
X014828Y004543D02*
X012046Y004543D01*
X012088Y004701D02*
X013363Y004701D01*
X013205Y004860D02*
X012230Y004860D01*
X011924Y004384D02*
X014828Y004384D01*
X014741Y004226D02*
X008663Y004226D01*
X008663Y004384D02*
X011372Y004384D01*
X011249Y004543D02*
X008610Y004543D01*
X008500Y004701D02*
X011208Y004701D01*
X011066Y004860D02*
X009950Y004860D01*
X009346Y004860D02*
X008522Y004860D01*
X008619Y005018D02*
X009208Y005018D01*
X009208Y005177D02*
X008663Y005177D01*
X008663Y005335D02*
X009208Y005335D01*
X009339Y005494D02*
X008603Y005494D01*
X008483Y005652D02*
X013356Y005652D01*
X013254Y005811D02*
X009901Y005811D01*
X009395Y005811D02*
X008580Y005811D01*
X008646Y005969D02*
X009237Y005969D01*
X009208Y006128D02*
X008663Y006128D01*
X008642Y006286D02*
X009208Y006286D01*
X009290Y006445D02*
X008577Y006445D01*
X008420Y006603D02*
X009449Y006603D01*
X009847Y006603D02*
X011168Y006603D01*
X011226Y006762D02*
X007511Y006762D01*
X007487Y006819D02*
X007361Y006944D01*
X007197Y007012D01*
X007020Y007012D01*
X006856Y006944D01*
X006730Y006819D01*
X006662Y006655D01*
X006662Y006477D01*
X006730Y006313D01*
X006856Y006187D01*
X007020Y006119D01*
X007197Y006119D01*
X007361Y006187D01*
X007487Y006313D01*
X007555Y006477D01*
X007555Y006655D01*
X007487Y006819D01*
X007386Y006920D02*
X011316Y006920D01*
X011980Y006920D02*
X013144Y006920D01*
X013108Y007079D02*
X006178Y007079D01*
X006178Y007237D02*
X006725Y007237D01*
X006676Y007257D02*
X006982Y007130D01*
X007314Y007130D01*
X007620Y007257D01*
X007854Y007492D01*
X007981Y007798D01*
X007981Y008129D01*
X007854Y008435D01*
X007620Y008670D01*
X007314Y008797D01*
X006982Y008797D01*
X006676Y008670D01*
X006442Y008435D01*
X006315Y008129D01*
X006315Y007798D01*
X006442Y007492D01*
X006676Y007257D01*
X006538Y007396D02*
X006178Y007396D01*
X006178Y007554D02*
X006416Y007554D01*
X006350Y007713D02*
X006178Y007713D01*
X006178Y007871D02*
X006315Y007871D01*
X006315Y008030D02*
X006178Y008030D01*
X006178Y008188D02*
X006339Y008188D01*
X006405Y008347D02*
X006178Y008347D01*
X006178Y008505D02*
X006511Y008505D01*
X006670Y008664D02*
X006178Y008664D01*
X006178Y008822D02*
X008298Y008822D01*
X008303Y008664D02*
X007626Y008664D01*
X007784Y008505D02*
X008369Y008505D01*
X008505Y008347D02*
X007891Y008347D01*
X007957Y008188D02*
X013187Y008188D01*
X013328Y008030D02*
X007981Y008030D01*
X007981Y007871D02*
X013328Y007871D01*
X013328Y007713D02*
X007946Y007713D01*
X007880Y007554D02*
X013258Y007554D01*
X013108Y007396D02*
X007758Y007396D01*
X007571Y007237D02*
X013108Y007237D01*
X013303Y006762D02*
X012070Y006762D01*
X012177Y006603D02*
X013307Y006603D01*
X014188Y007237D02*
X015652Y007237D01*
X015811Y007396D02*
X014188Y007396D01*
X014038Y007554D02*
X016258Y007554D01*
X016328Y007713D02*
X013968Y007713D01*
X013968Y007871D02*
X016328Y007871D01*
X016328Y008030D02*
X013968Y008030D01*
X013968Y008188D02*
X016328Y008188D01*
X016370Y008347D02*
X013925Y008347D01*
X013775Y008505D02*
X016520Y008505D01*
X016679Y008664D02*
X013617Y008664D01*
X013588Y008822D02*
X016708Y008822D01*
X016826Y008981D02*
X013470Y008981D01*
X012859Y008347D02*
X011790Y008347D01*
X011065Y008347D02*
X009230Y008347D01*
X008330Y008981D02*
X006178Y008981D01*
X006178Y009139D02*
X008411Y009139D01*
X008604Y009298D02*
X006178Y009298D01*
X006178Y009456D02*
X019302Y009456D01*
X019208Y009298D02*
X011692Y009298D01*
X011885Y009139D02*
X019154Y009139D01*
X019460Y009615D02*
X006178Y009615D01*
X006178Y009773D02*
X019788Y009773D01*
X019947Y009932D02*
X006178Y009932D01*
X006178Y010090D02*
X021049Y010090D01*
X021049Y010249D02*
X006178Y010249D01*
X006187Y010407D02*
X021049Y010407D01*
X021049Y010566D02*
X006178Y010566D01*
X006196Y010724D02*
X021049Y010724D01*
X021094Y010883D02*
X006290Y010883D01*
X006552Y011041D02*
X021181Y011041D01*
X022178Y011041D02*
X023381Y011041D01*
X023240Y010883D02*
X022264Y010883D01*
X022309Y010724D02*
X023182Y010724D01*
X023182Y010566D02*
X022309Y010566D01*
X022309Y010407D02*
X023243Y010407D01*
X023395Y010249D02*
X022309Y010249D01*
X022309Y010090D02*
X025188Y010090D01*
X025188Y009932D02*
X022309Y009932D01*
X022309Y009773D02*
X025188Y009773D01*
X025188Y009615D02*
X022309Y009615D01*
X022275Y009456D02*
X025188Y009456D01*
X025188Y009298D02*
X022204Y009298D01*
X023901Y010249D02*
X024379Y010249D01*
X024228Y010407D02*
X024052Y010407D01*
X024114Y010566D02*
X024166Y010566D01*
X024166Y010724D02*
X024114Y010724D01*
X024056Y010883D02*
X024224Y010883D01*
X024365Y011041D02*
X023915Y011041D01*
X024899Y011041D02*
X024960Y011041D01*
X025040Y010883D02*
X025157Y010883D01*
X025188Y010724D02*
X025098Y010724D01*
X025098Y010566D02*
X025188Y010566D01*
X025188Y010407D02*
X025037Y010407D01*
X025188Y010249D02*
X024885Y010249D01*
X014582Y004067D02*
X008612Y004067D01*
X008505Y003909D02*
X014424Y003909D01*
X014265Y003750D02*
X008530Y003750D01*
X008689Y003592D02*
X014107Y003592D01*
X011800Y005335D02*
X011495Y005335D01*
X011277Y005494D02*
X012019Y005494D01*
X011906Y005969D02*
X011439Y005969D01*
X011598Y006128D02*
X011748Y006128D01*
X007766Y006603D02*
X007555Y006603D01*
X007542Y006445D02*
X007609Y006445D01*
X007543Y006286D02*
X007460Y006286D01*
X007523Y006128D02*
X007217Y006128D01*
X007000Y006128D02*
X006178Y006128D01*
X006178Y006286D02*
X006757Y006286D01*
X006675Y006445D02*
X006178Y006445D01*
X006178Y006603D02*
X006662Y006603D01*
X006706Y006762D02*
X006178Y006762D01*
X006178Y006920D02*
X006831Y006920D01*
X006178Y005969D02*
X007540Y005969D01*
X007606Y005811D02*
X006178Y005811D01*
X006178Y005652D02*
X007702Y005652D01*
X007582Y005494D02*
X006178Y005494D01*
X006178Y005335D02*
X007523Y005335D01*
X007523Y005177D02*
X007352Y005177D01*
X007361Y005173D02*
X007197Y005241D01*
X007020Y005241D01*
X006856Y005173D01*
X006730Y005047D01*
X006662Y004883D01*
X006662Y004705D01*
X006730Y004541D01*
X006856Y004416D01*
X007020Y004348D01*
X007197Y004348D01*
X007361Y004416D01*
X007487Y004541D01*
X007555Y004705D01*
X007555Y004883D01*
X007487Y005047D01*
X007361Y005173D01*
X007499Y005018D02*
X007566Y005018D01*
X007555Y004860D02*
X007663Y004860D01*
X007686Y004701D02*
X007553Y004701D01*
X007575Y004543D02*
X007488Y004543D01*
X007523Y004384D02*
X007285Y004384D01*
X007323Y004226D02*
X007523Y004226D01*
X006972Y004226D02*
X006178Y004226D01*
X006178Y004384D02*
X006932Y004384D01*
X006729Y004543D02*
X006178Y004543D01*
X006178Y004701D02*
X006664Y004701D01*
X006662Y004860D02*
X006178Y004860D01*
X006178Y005018D02*
X006718Y005018D01*
X006865Y005177D02*
X006178Y005177D01*
X006178Y004067D02*
X006640Y004067D01*
X006482Y003909D02*
X006178Y003909D01*
X006178Y003750D02*
X006393Y003750D01*
X006327Y003592D02*
X006178Y003592D01*
X006178Y003433D02*
X006315Y003433D01*
X006315Y003275D02*
X006178Y003275D01*
X006178Y003116D02*
X006362Y003116D01*
X006428Y002958D02*
X006178Y002958D01*
X006178Y002799D02*
X006567Y002799D01*
X006796Y002641D02*
X006178Y002641D01*
X007868Y002958D02*
X008418Y002958D01*
X008259Y003116D02*
X007933Y003116D01*
X007981Y003275D02*
X008101Y003275D01*
X006178Y001531D02*
X017628Y001531D01*
X017518Y001373D02*
X006178Y001373D01*
X009325Y009139D02*
X010971Y009139D01*
X011164Y009298D02*
X009132Y009298D01*
X023085Y002165D02*
X025188Y002165D01*
X025188Y002007D02*
X022927Y002007D01*
X023244Y002324D02*
X025188Y002324D01*
X025188Y002482D02*
X023402Y002482D01*
X023992Y002641D02*
X025188Y002641D01*
X025188Y002799D02*
X024158Y002799D01*
X024238Y002958D02*
X025188Y002958D01*
X025188Y003116D02*
X024278Y003116D01*
X024278Y003275D02*
X025188Y003275D01*
X025188Y003433D02*
X024225Y003433D01*
X024127Y003592D02*
X025188Y003592D01*
X025188Y003750D02*
X023918Y003750D01*
X025188Y001848D02*
X022309Y001848D01*
X022309Y001690D02*
X025188Y001690D01*
X025188Y001531D02*
X024972Y001531D01*
X025070Y001373D02*
X025188Y001373D01*
X025188Y001214D02*
X025098Y001214D01*
X025072Y001056D02*
X025188Y001056D01*
X025128Y000897D02*
X024977Y000897D01*
X024287Y000897D02*
X023993Y000897D01*
X024088Y001056D02*
X024192Y001056D01*
X024166Y001214D02*
X024114Y001214D01*
X024086Y001373D02*
X024194Y001373D01*
X024292Y001531D02*
X023988Y001531D01*
X023308Y001531D02*
X022309Y001531D01*
X022309Y001373D02*
X023210Y001373D01*
X023182Y001214D02*
X022309Y001214D01*
X022297Y001056D02*
X023208Y001056D01*
X023303Y000897D02*
X022231Y000897D01*
D17*
X022664Y002196D02*
X021679Y002196D01*
X019664Y002196D01*
X019648Y002180D01*
X018898Y002680D02*
X017948Y001730D01*
X017948Y001180D01*
X016648Y002180D02*
X016648Y004180D01*
X015148Y004180D02*
X015148Y006280D01*
X016048Y007180D01*
X016648Y007180D01*
X016648Y008180D01*
X017148Y008680D01*
X019148Y008680D01*
X019648Y009180D01*
X020132Y009664D01*
X021679Y009664D01*
X017648Y007580D02*
X017248Y007180D01*
X016648Y007180D01*
X016648Y007080D01*
X017148Y006180D02*
X017648Y006680D01*
X021648Y006680D01*
X021679Y006711D01*
X021679Y005149D02*
X019679Y005149D01*
X019648Y005180D01*
X017948Y005180D02*
X016648Y005180D01*
X015148Y004180D02*
X014148Y003180D01*
X008648Y003180D01*
X008093Y003735D01*
X008093Y004302D01*
X009648Y005180D02*
X011198Y005180D01*
X011648Y004730D01*
X012098Y005180D01*
X013648Y005180D01*
X013648Y006180D02*
X012148Y006180D01*
X011648Y006680D01*
X011648Y006630D02*
X011198Y006180D01*
X009648Y006180D01*
X013648Y007180D02*
X013648Y008180D01*
X013148Y008680D01*
X011538Y008680D01*
X011428Y008790D01*
X008868Y008790D01*
X016648Y006180D02*
X017148Y006180D01*
X022664Y002196D02*
X023648Y003180D01*
X012648Y002180D02*
X010148Y002180D01*
D18*
X021679Y002196D02*
X021679Y001211D01*
X021679Y004164D02*
X021679Y005149D01*
X021679Y006711D02*
X021679Y007696D01*
X021679Y009664D02*
X021679Y010649D01*
M02*
