G75*
G70*
%OFA0B0*%
%FSLAX24Y24*%
%IPPOS*%
%LPD*%
%AMOC8*
5,1,8,0,0,1.08239X$1,22.5*
%
%ADD10C,0.0000*%
D10*
X005948Y001387D02*
X005948Y010472D01*
X005943Y010523D01*
X005941Y010573D01*
X005943Y010624D01*
X005948Y010674D01*
X005958Y010724D01*
X005970Y010774D01*
X005986Y010822D01*
X006006Y010868D01*
X006029Y010914D01*
X006055Y010957D01*
X006084Y010999D01*
X006115Y011039D01*
X006150Y011076D01*
X006187Y011110D01*
X006227Y011142D01*
X006269Y011171D01*
X006312Y011197D01*
X006358Y011219D01*
X006405Y011239D01*
X006453Y011255D01*
X006502Y011267D01*
X006552Y011276D01*
X024909Y011276D01*
X024953Y011274D01*
X024997Y011268D01*
X025041Y011259D01*
X025083Y011245D01*
X025124Y011228D01*
X025164Y011208D01*
X025201Y011184D01*
X025236Y011157D01*
X025269Y011127D01*
X025299Y011094D01*
X025326Y011059D01*
X025350Y011021D01*
X025370Y010982D01*
X025387Y010941D01*
X025401Y010899D01*
X025410Y010855D01*
X025416Y010811D01*
X025418Y010767D01*
X025418Y001050D01*
X025416Y001009D01*
X025411Y000968D01*
X025402Y000928D01*
X025390Y000889D01*
X025374Y000851D01*
X025355Y000815D01*
X025333Y000780D01*
X025308Y000748D01*
X025280Y000718D01*
X025250Y000690D01*
X025218Y000665D01*
X025183Y000643D01*
X025147Y000624D01*
X025109Y000608D01*
X025070Y000596D01*
X025030Y000587D01*
X024989Y000582D01*
X024948Y000580D01*
X006655Y000580D01*
X006601Y000585D01*
X006548Y000594D01*
X006495Y000608D01*
X006444Y000624D01*
X006393Y000645D01*
X006345Y000669D01*
X006298Y000696D01*
X006253Y000727D01*
X006211Y000761D01*
X006171Y000797D01*
X006134Y000837D01*
X006100Y000879D01*
X006069Y000923D01*
X006041Y000970D01*
X006016Y001018D01*
X005995Y001068D01*
X005978Y001119D01*
X005964Y001172D01*
X005954Y001225D01*
X005948Y001279D01*
X005946Y001333D01*
X005948Y001387D01*
X006892Y004794D02*
X006894Y004823D01*
X006900Y004851D01*
X006909Y004879D01*
X006922Y004905D01*
X006939Y004928D01*
X006958Y004950D01*
X006980Y004969D01*
X007005Y004984D01*
X007031Y004997D01*
X007059Y005005D01*
X007087Y005010D01*
X007116Y005011D01*
X007145Y005008D01*
X007173Y005001D01*
X007200Y004991D01*
X007226Y004977D01*
X007249Y004960D01*
X007270Y004940D01*
X007288Y004917D01*
X007303Y004892D01*
X007314Y004865D01*
X007322Y004837D01*
X007326Y004808D01*
X007326Y004780D01*
X007322Y004751D01*
X007314Y004723D01*
X007303Y004696D01*
X007288Y004671D01*
X007270Y004648D01*
X007249Y004628D01*
X007226Y004611D01*
X007200Y004597D01*
X007173Y004587D01*
X007145Y004580D01*
X007116Y004577D01*
X007087Y004578D01*
X007059Y004583D01*
X007031Y004591D01*
X007005Y004604D01*
X006980Y004619D01*
X006958Y004638D01*
X006939Y004660D01*
X006922Y004683D01*
X006909Y004709D01*
X006900Y004737D01*
X006894Y004765D01*
X006892Y004794D01*
X006892Y006566D02*
X006894Y006595D01*
X006900Y006623D01*
X006909Y006651D01*
X006922Y006677D01*
X006939Y006700D01*
X006958Y006722D01*
X006980Y006741D01*
X007005Y006756D01*
X007031Y006769D01*
X007059Y006777D01*
X007087Y006782D01*
X007116Y006783D01*
X007145Y006780D01*
X007173Y006773D01*
X007200Y006763D01*
X007226Y006749D01*
X007249Y006732D01*
X007270Y006712D01*
X007288Y006689D01*
X007303Y006664D01*
X007314Y006637D01*
X007322Y006609D01*
X007326Y006580D01*
X007326Y006552D01*
X007322Y006523D01*
X007314Y006495D01*
X007303Y006468D01*
X007288Y006443D01*
X007270Y006420D01*
X007249Y006400D01*
X007226Y006383D01*
X007200Y006369D01*
X007173Y006359D01*
X007145Y006352D01*
X007116Y006349D01*
X007087Y006350D01*
X007059Y006355D01*
X007031Y006363D01*
X007005Y006376D01*
X006980Y006391D01*
X006958Y006410D01*
X006939Y006432D01*
X006922Y006455D01*
X006909Y006481D01*
X006900Y006509D01*
X006894Y006537D01*
X006892Y006566D01*
X021443Y008680D02*
X021445Y008710D01*
X021451Y008740D01*
X021460Y008769D01*
X021473Y008796D01*
X021490Y008821D01*
X021509Y008844D01*
X021532Y008865D01*
X021557Y008882D01*
X021583Y008896D01*
X021612Y008906D01*
X021641Y008913D01*
X021671Y008916D01*
X021702Y008915D01*
X021732Y008910D01*
X021761Y008901D01*
X021788Y008889D01*
X021814Y008874D01*
X021838Y008855D01*
X021859Y008833D01*
X021877Y008809D01*
X021892Y008782D01*
X021903Y008754D01*
X021911Y008725D01*
X021915Y008695D01*
X021915Y008665D01*
X021911Y008635D01*
X021903Y008606D01*
X021892Y008578D01*
X021877Y008551D01*
X021859Y008527D01*
X021838Y008505D01*
X021814Y008486D01*
X021788Y008471D01*
X021761Y008459D01*
X021732Y008450D01*
X021702Y008445D01*
X021671Y008444D01*
X021641Y008447D01*
X021612Y008454D01*
X021583Y008464D01*
X021557Y008478D01*
X021532Y008495D01*
X021509Y008516D01*
X021490Y008539D01*
X021473Y008564D01*
X021460Y008591D01*
X021451Y008620D01*
X021445Y008650D01*
X021443Y008680D01*
X023412Y006711D02*
X023414Y006741D01*
X023420Y006771D01*
X023429Y006800D01*
X023442Y006827D01*
X023459Y006852D01*
X023478Y006875D01*
X023501Y006896D01*
X023526Y006913D01*
X023552Y006927D01*
X023581Y006937D01*
X023610Y006944D01*
X023640Y006947D01*
X023671Y006946D01*
X023701Y006941D01*
X023730Y006932D01*
X023757Y006920D01*
X023783Y006905D01*
X023807Y006886D01*
X023828Y006864D01*
X023846Y006840D01*
X023861Y006813D01*
X023872Y006785D01*
X023880Y006756D01*
X023884Y006726D01*
X023884Y006696D01*
X023880Y006666D01*
X023872Y006637D01*
X023861Y006609D01*
X023846Y006582D01*
X023828Y006558D01*
X023807Y006536D01*
X023783Y006517D01*
X023757Y006502D01*
X023730Y006490D01*
X023701Y006481D01*
X023671Y006476D01*
X023640Y006475D01*
X023610Y006478D01*
X023581Y006485D01*
X023552Y006495D01*
X023526Y006509D01*
X023501Y006526D01*
X023478Y006547D01*
X023459Y006570D01*
X023442Y006595D01*
X023429Y006622D01*
X023420Y006651D01*
X023414Y006681D01*
X023412Y006711D01*
X024396Y006711D02*
X024398Y006741D01*
X024404Y006771D01*
X024413Y006800D01*
X024426Y006827D01*
X024443Y006852D01*
X024462Y006875D01*
X024485Y006896D01*
X024510Y006913D01*
X024536Y006927D01*
X024565Y006937D01*
X024594Y006944D01*
X024624Y006947D01*
X024655Y006946D01*
X024685Y006941D01*
X024714Y006932D01*
X024741Y006920D01*
X024767Y006905D01*
X024791Y006886D01*
X024812Y006864D01*
X024830Y006840D01*
X024845Y006813D01*
X024856Y006785D01*
X024864Y006756D01*
X024868Y006726D01*
X024868Y006696D01*
X024864Y006666D01*
X024856Y006637D01*
X024845Y006609D01*
X024830Y006582D01*
X024812Y006558D01*
X024791Y006536D01*
X024767Y006517D01*
X024741Y006502D01*
X024714Y006490D01*
X024685Y006481D01*
X024655Y006476D01*
X024624Y006475D01*
X024594Y006478D01*
X024565Y006485D01*
X024536Y006495D01*
X024510Y006509D01*
X024485Y006526D01*
X024462Y006547D01*
X024443Y006570D01*
X024426Y006595D01*
X024413Y006622D01*
X024404Y006651D01*
X024398Y006681D01*
X024396Y006711D01*
X024396Y005149D02*
X024398Y005179D01*
X024404Y005209D01*
X024413Y005238D01*
X024426Y005265D01*
X024443Y005290D01*
X024462Y005313D01*
X024485Y005334D01*
X024510Y005351D01*
X024536Y005365D01*
X024565Y005375D01*
X024594Y005382D01*
X024624Y005385D01*
X024655Y005384D01*
X024685Y005379D01*
X024714Y005370D01*
X024741Y005358D01*
X024767Y005343D01*
X024791Y005324D01*
X024812Y005302D01*
X024830Y005278D01*
X024845Y005251D01*
X024856Y005223D01*
X024864Y005194D01*
X024868Y005164D01*
X024868Y005134D01*
X024864Y005104D01*
X024856Y005075D01*
X024845Y005047D01*
X024830Y005020D01*
X024812Y004996D01*
X024791Y004974D01*
X024767Y004955D01*
X024741Y004940D01*
X024714Y004928D01*
X024685Y004919D01*
X024655Y004914D01*
X024624Y004913D01*
X024594Y004916D01*
X024565Y004923D01*
X024536Y004933D01*
X024510Y004947D01*
X024485Y004964D01*
X024462Y004985D01*
X024443Y005008D01*
X024426Y005033D01*
X024413Y005060D01*
X024404Y005089D01*
X024398Y005119D01*
X024396Y005149D01*
X023412Y005149D02*
X023414Y005179D01*
X023420Y005209D01*
X023429Y005238D01*
X023442Y005265D01*
X023459Y005290D01*
X023478Y005313D01*
X023501Y005334D01*
X023526Y005351D01*
X023552Y005365D01*
X023581Y005375D01*
X023610Y005382D01*
X023640Y005385D01*
X023671Y005384D01*
X023701Y005379D01*
X023730Y005370D01*
X023757Y005358D01*
X023783Y005343D01*
X023807Y005324D01*
X023828Y005302D01*
X023846Y005278D01*
X023861Y005251D01*
X023872Y005223D01*
X023880Y005194D01*
X023884Y005164D01*
X023884Y005134D01*
X023880Y005104D01*
X023872Y005075D01*
X023861Y005047D01*
X023846Y005020D01*
X023828Y004996D01*
X023807Y004974D01*
X023783Y004955D01*
X023757Y004940D01*
X023730Y004928D01*
X023701Y004919D01*
X023671Y004914D01*
X023640Y004913D01*
X023610Y004916D01*
X023581Y004923D01*
X023552Y004933D01*
X023526Y004947D01*
X023501Y004964D01*
X023478Y004985D01*
X023459Y005008D01*
X023442Y005033D01*
X023429Y005060D01*
X023420Y005089D01*
X023414Y005119D01*
X023412Y005149D01*
X021443Y003180D02*
X021445Y003210D01*
X021451Y003240D01*
X021460Y003269D01*
X021473Y003296D01*
X021490Y003321D01*
X021509Y003344D01*
X021532Y003365D01*
X021557Y003382D01*
X021583Y003396D01*
X021612Y003406D01*
X021641Y003413D01*
X021671Y003416D01*
X021702Y003415D01*
X021732Y003410D01*
X021761Y003401D01*
X021788Y003389D01*
X021814Y003374D01*
X021838Y003355D01*
X021859Y003333D01*
X021877Y003309D01*
X021892Y003282D01*
X021903Y003254D01*
X021911Y003225D01*
X021915Y003195D01*
X021915Y003165D01*
X021911Y003135D01*
X021903Y003106D01*
X021892Y003078D01*
X021877Y003051D01*
X021859Y003027D01*
X021838Y003005D01*
X021814Y002986D01*
X021788Y002971D01*
X021761Y002959D01*
X021732Y002950D01*
X021702Y002945D01*
X021671Y002944D01*
X021641Y002947D01*
X021612Y002954D01*
X021583Y002964D01*
X021557Y002978D01*
X021532Y002995D01*
X021509Y003016D01*
X021490Y003039D01*
X021473Y003064D01*
X021460Y003091D01*
X021451Y003120D01*
X021445Y003150D01*
X021443Y003180D01*
X023412Y001211D02*
X023414Y001241D01*
X023420Y001271D01*
X023429Y001300D01*
X023442Y001327D01*
X023459Y001352D01*
X023478Y001375D01*
X023501Y001396D01*
X023526Y001413D01*
X023552Y001427D01*
X023581Y001437D01*
X023610Y001444D01*
X023640Y001447D01*
X023671Y001446D01*
X023701Y001441D01*
X023730Y001432D01*
X023757Y001420D01*
X023783Y001405D01*
X023807Y001386D01*
X023828Y001364D01*
X023846Y001340D01*
X023861Y001313D01*
X023872Y001285D01*
X023880Y001256D01*
X023884Y001226D01*
X023884Y001196D01*
X023880Y001166D01*
X023872Y001137D01*
X023861Y001109D01*
X023846Y001082D01*
X023828Y001058D01*
X023807Y001036D01*
X023783Y001017D01*
X023757Y001002D01*
X023730Y000990D01*
X023701Y000981D01*
X023671Y000976D01*
X023640Y000975D01*
X023610Y000978D01*
X023581Y000985D01*
X023552Y000995D01*
X023526Y001009D01*
X023501Y001026D01*
X023478Y001047D01*
X023459Y001070D01*
X023442Y001095D01*
X023429Y001122D01*
X023420Y001151D01*
X023414Y001181D01*
X023412Y001211D01*
X024396Y001211D02*
X024398Y001241D01*
X024404Y001271D01*
X024413Y001300D01*
X024426Y001327D01*
X024443Y001352D01*
X024462Y001375D01*
X024485Y001396D01*
X024510Y001413D01*
X024536Y001427D01*
X024565Y001437D01*
X024594Y001444D01*
X024624Y001447D01*
X024655Y001446D01*
X024685Y001441D01*
X024714Y001432D01*
X024741Y001420D01*
X024767Y001405D01*
X024791Y001386D01*
X024812Y001364D01*
X024830Y001340D01*
X024845Y001313D01*
X024856Y001285D01*
X024864Y001256D01*
X024868Y001226D01*
X024868Y001196D01*
X024864Y001166D01*
X024856Y001137D01*
X024845Y001109D01*
X024830Y001082D01*
X024812Y001058D01*
X024791Y001036D01*
X024767Y001017D01*
X024741Y001002D01*
X024714Y000990D01*
X024685Y000981D01*
X024655Y000976D01*
X024624Y000975D01*
X024594Y000978D01*
X024565Y000985D01*
X024536Y000995D01*
X024510Y001009D01*
X024485Y001026D01*
X024462Y001047D01*
X024443Y001070D01*
X024426Y001095D01*
X024413Y001122D01*
X024404Y001151D01*
X024398Y001181D01*
X024396Y001211D01*
X024396Y010649D02*
X024398Y010679D01*
X024404Y010709D01*
X024413Y010738D01*
X024426Y010765D01*
X024443Y010790D01*
X024462Y010813D01*
X024485Y010834D01*
X024510Y010851D01*
X024536Y010865D01*
X024565Y010875D01*
X024594Y010882D01*
X024624Y010885D01*
X024655Y010884D01*
X024685Y010879D01*
X024714Y010870D01*
X024741Y010858D01*
X024767Y010843D01*
X024791Y010824D01*
X024812Y010802D01*
X024830Y010778D01*
X024845Y010751D01*
X024856Y010723D01*
X024864Y010694D01*
X024868Y010664D01*
X024868Y010634D01*
X024864Y010604D01*
X024856Y010575D01*
X024845Y010547D01*
X024830Y010520D01*
X024812Y010496D01*
X024791Y010474D01*
X024767Y010455D01*
X024741Y010440D01*
X024714Y010428D01*
X024685Y010419D01*
X024655Y010414D01*
X024624Y010413D01*
X024594Y010416D01*
X024565Y010423D01*
X024536Y010433D01*
X024510Y010447D01*
X024485Y010464D01*
X024462Y010485D01*
X024443Y010508D01*
X024426Y010533D01*
X024413Y010560D01*
X024404Y010589D01*
X024398Y010619D01*
X024396Y010649D01*
X023412Y010649D02*
X023414Y010679D01*
X023420Y010709D01*
X023429Y010738D01*
X023442Y010765D01*
X023459Y010790D01*
X023478Y010813D01*
X023501Y010834D01*
X023526Y010851D01*
X023552Y010865D01*
X023581Y010875D01*
X023610Y010882D01*
X023640Y010885D01*
X023671Y010884D01*
X023701Y010879D01*
X023730Y010870D01*
X023757Y010858D01*
X023783Y010843D01*
X023807Y010824D01*
X023828Y010802D01*
X023846Y010778D01*
X023861Y010751D01*
X023872Y010723D01*
X023880Y010694D01*
X023884Y010664D01*
X023884Y010634D01*
X023880Y010604D01*
X023872Y010575D01*
X023861Y010547D01*
X023846Y010520D01*
X023828Y010496D01*
X023807Y010474D01*
X023783Y010455D01*
X023757Y010440D01*
X023730Y010428D01*
X023701Y010419D01*
X023671Y010414D01*
X023640Y010413D01*
X023610Y010416D01*
X023581Y010423D01*
X023552Y010433D01*
X023526Y010447D01*
X023501Y010464D01*
X023478Y010485D01*
X023459Y010508D01*
X023442Y010533D01*
X023429Y010560D01*
X023420Y010589D01*
X023414Y010619D01*
X023412Y010649D01*
M02*
