G75*
G70*
%OFA0B0*%
%FSLAX24Y24*%
%IPPOS*%
%LPD*%
%AMOC8*
5,1,8,0,0,1.08239X$1,22.5*
%
%ADD10OC8,0.0480*%
%ADD11C,0.0740*%
%ADD12C,0.1266*%
%ADD13C,0.0480*%
%ADD14C,0.0860*%
%ADD15OC8,0.0680*%
%ADD16C,0.0240*%
D10*
X009148Y002180D03*
X010148Y002180D03*
X012648Y002180D03*
X016648Y002180D03*
X017948Y001180D03*
X019648Y002180D03*
X018898Y002680D03*
X019648Y003180D03*
X019648Y005180D03*
X017948Y005180D03*
X017648Y007580D03*
X018648Y007580D03*
X017148Y008680D03*
X019648Y009180D03*
X013148Y008680D03*
X009648Y007180D03*
X009648Y006180D03*
X009648Y005180D03*
X009648Y004180D03*
D11*
X008093Y004302D03*
X008093Y005236D03*
X008093Y006124D03*
X008093Y007058D03*
X008868Y008790D03*
X011428Y008790D03*
X011428Y010570D03*
X008868Y010570D03*
D12*
X007148Y003397D03*
X007148Y007963D03*
D13*
X011648Y006630D03*
X011648Y004730D03*
D14*
X021679Y005149D03*
X021679Y004164D03*
X023648Y003180D03*
X021679Y002196D03*
X021679Y001211D03*
X021679Y006711D03*
X021679Y007696D03*
X023648Y008680D03*
X021679Y009664D03*
X021679Y010649D03*
D15*
X016648Y007180D03*
X016648Y006180D03*
X016648Y005180D03*
X016648Y004180D03*
X013648Y004180D03*
X013648Y005180D03*
X013648Y006180D03*
X013648Y007180D03*
D16*
X018648Y007580D02*
X019448Y007580D01*
X020448Y006580D01*
X020448Y003980D01*
X019648Y003180D01*
X009648Y004180D02*
X009148Y003680D01*
X009148Y002180D01*
M02*
